<mxfile host="65bd71144e">
    <diagram id="aUuO4qeNSgWwS_zEwsbn" name="Page-1">
        <mxGraphModel dx="1776" dy="279" grid="1" gridSize="10" guides="1" tooltips="1" connect="1" arrows="1" fold="1" page="1" pageScale="1" pageWidth="1100" pageHeight="850" math="0" shadow="0">
            <root>
                <mxCell id="0"/>
                <mxCell id="1" parent="0"/>
                <mxCell id="3" value="" style="shape=stencil(lZbdUttADIWfxrdnpNX+XlN4D2YIjYc0YUKg5e3R1mOIlkSd3vnv88pHR8c7yc3L9v55MwV6OR0PT5vf88NpO8mPKYR5v90c55MeTXI7yc3j4bj5eTy87h+W8+f7/mQ/+nV462/4s3CNUEKnAr0vV2JCan+v3C3Abt6fAxmlGCAJWnWAhsoGyIKaXSCJAUoEeyUltGyAqis4QG2IFmiMFh1AVbIltYLE14FCyFYlJgLRdSITJNolGtiRKRGq7ZzqQE4jooBtI2oFO4BUkAVK84EMsrrmBhIHKGMjUkV1VIphXCGqW5zO6W1pFggITklaQK4G0CKzs0KuaMkCGSE53lARrZlU6OB8dG+TXUFbGfyBoGFG6V8zykPjCLFcB87c/OkNWoPh8hI6MBbQofJa3UdysGtbX3FZJh36YUg1GJySeqzYkr6i53KrBeXbjFYnBjQa6wBofHozmhCHoVZZHTN1QP4HkDima09Dx0whrm7+BBKyE0yc1rQ+i43ofHRBtW4tDHHaEMYwzrym7cXn1ar2AxKvKXLteWuLSODg1ZNsYgRfUc0TWz831xQcR4GYkZweBxmBBHEmRz0x/Bm0AY6garpBofHfpgdfO47HebdbNizn98cdil5adjdy+wE=);lineShape=1;" vertex="1" parent="1">
                    <mxGeometry x="61.60172517916578" y="33.21916622524526" width="1.3592555352638431" height="1.3634252765430304" as="geometry"/>
                </mxCell>
                <mxCell id="4" value="" style="shape=stencil(lZbdUttADIWfxrdnpNX+XlN4D2YIjYc0YUKg5e3R1mOIlkSd3vnv88pHR8c7yc3L9v55MwV6OR0PT5vf88NpO8mPKYR5v90c55MeTXI7yc3j4bj5eTy87h+W8+f7/mQ/+nV462/4s3CNUEKnAr0vV2JCan+v3C3Abt6fAxmlGCAJWnWAhsoGyIKaXSCJAUoEeyUltGyAqis4QG2IFmiMFh1AVbIltYLE14FCyFYlJgLRdSITJNolGtiRKRGq7ZzqQE4jooBtI2oFO4BUkAVK84EMsrrmBhIHKGMjUkV1VIphXCGqW5zO6W1pFggITklaQK4G0CKzs0KuaMkCGSE53lARrZlU6OB8dG+TXUFbGfyBoGFG6V8zykPjCLFcB87c/OkNWoPh8hI6MBbQofJa3UdysGtbX3FZJh36YUg1GJySeqzYkr6i53KrBeXbjFYnBjQa6wBofHozmhCHoVZZHTN1QP4HkDima09Dx0whrm7+BBKyE0yc1rQ+i43ofHRBtW4tDHHaEMYwzrym7cXn1ar2AxKvKXLteWuLSODg1ZNsYgRfUc0TWz831xQcR4GYkZweBxmBBHEmRz0x/Bm0AY6garpBofHfpgdfO47HebdbNizn98cdil5adjdy+wE=);lineShape=1;" vertex="1" parent="1">
                    <mxGeometry x="61.60172517916578" y="33.21916622524526" width="1.3592555352638431" height="1.3634252765430304" as="geometry"/>
                </mxCell>
                <mxCell id="5" value="[ 4 , 0 , 2 , 1 , 3 ]" style="text;html=1;align=center;verticalAlign=middle;resizable=0;points=[];autosize=1;strokeColor=none;fillColor=none;" vertex="1" parent="1">
                    <mxGeometry x="100" y="48.69" width="110" height="30" as="geometry"/>
                </mxCell>
                <mxCell id="6" value="" style="shape=stencil(lZbdUttADIWfxrdnpNX+XlN4D2YIjYc0YUKg5e3R1mOIlkSd3vnv88pHR8c7yc3L9v55MwV6OR0PT5vf88NpO8mPKYR5v90c55MeTXI7yc3j4bj5eTy87h+W8+f7/mQ/+nV462/4s3CNUEKnAr0vV2JCan+v3C3Abt6fAxmlGCAJWnWAhsoGyIKaXSCJAUoEeyUltGyAqis4QG2IFmiMFh1AVbIltYLE14FCyFYlJgLRdSITJNolGtiRKRGq7ZzqQE4jooBtI2oFO4BUkAVK84EMsrrmBhIHKGMjUkV1VIphXCGqW5zO6W1pFggITklaQK4G0CKzs0KuaMkCGSE53lARrZlU6OB8dG+TXUFbGfyBoGFG6V8zykPjCLFcB87c/OkNWoPh8hI6MBbQofJa3UdysGtbX3FZJh36YUg1GJySeqzYkr6i53KrBeXbjFYnBjQa6wBofHozmhCHoVZZHTN1QP4HkDima09Dx0whrm7+BBKyE0yc1rQ+i43ofHRBtW4tDHHaEMYwzrym7cXn1ar2AxKvKXLteWuLSODg1ZNsYgRfUc0TWz831xQcR4GYkZweBxmBBHEmRz0x/Bm0AY6garpBofHfpgdfO47HebdbNizn98cdil5adjdy+wE=);lineShape=1;" vertex="1" parent="1">
                    <mxGeometry x="65.92604950349016" y="77.3272858805451" width="1.3592555352638431" height="1.3634252765430304" as="geometry"/>
                </mxCell>
                <mxCell id="7" value="[ 3 , 4 , 2 , 0 , 1 ]" style="text;html=1;align=center;verticalAlign=middle;resizable=0;points=[];autosize=1;strokeColor=none;fillColor=none;" vertex="1" parent="1">
                    <mxGeometry x="100" y="78.69" width="110" height="30" as="geometry"/>
                </mxCell>
                <mxCell id="8" value="" style="shape=stencil(lVrLchw3DPyavaIIvnl2nP9wleVIFUVyyXIS/70x2XAkgDuN8W21AmZAPBvNvaQP3+4/fb27xPDt9eX5z7t/Hj6/3l/Sb5cYH57u714eXuXTJX28pA9fnl/u/nh5/v70+fr310+b5Pbpr+e/tyf8e9UbjUrdtGL4cf2GKef/vvj9Kv/48PROvheKRclHKu1YviUKrOQzZT6Wr41SV/KFcgfyTHUo+QrtKYWGfn6jBuwpbP3TqY1j+Sz+DEp+UAf250hd+5OZOghADpSiVkjUClRgE+FCNUIFE2JuVIGPNgVj0qBWsUnaSZJFAbwhDRpNKyRiEAZR+N+Ju0Km5CjoPJXEKwmewSS2ZFIN2EtJKwwqKJUCFX2GxLB2RKHrNyTxEiiGTUG7NRVinEtNBy5JveJDZ51L4uiC3xC1Sds7nThokzLTcCKtszWnmb9HCqbF5Ax7ZNrjuitIxYFDbwqmSdbZFo4Ukk6N3InxGUwTyIMyVjBuLTgOqdPQkZbWOUDybQr6DEXiAHJpM0mnd5Gaxl4K+tAF1/Rmkhk+FXZ7UTAFVDoF0O5FoRmTBu5LfWbOPt/2GjxSMAOrOr21zwG7KyRK2EtZZ2vNVFE9dNsEaqGOD20KSGBBAANldWuVekBxGHZkNWk8uKarUYhe1zDp3TJM73XstkqM233R9dAaDTx2q87WJkbiNzRtUueZ8IcDRadGT7CRbW/QJgnAdEyq2q1dKg6/IetcGvsgPgRY+tCDYYluaEYX0BBMjDBfmHHdFRIEoduMM2/Ic4gd5pL20ui44sbMzV1hzHS8rVBvKBRUojzn/juFDg4t+Kslq4DSW0BnMkA37ODgtkayOHR7BfDrjoPfyTfUNShXK59B/TCFYeUZ5OpSnxLmBp4fF3ukNYPnVztARR7ZI7uLgRmyXyKHymZhQLEodBAycampf09hzNI6aVLKtoc5h17noePVrf6jVUBhk+o0XdLJC0HleUlslHiyKMSlOlFmb2vzktrIrZLbZjF2q7PMM55sAMNuxk6HEdSyHAG1MLbj0+mRMqqM/bgJ/7p8M90CT4W1W+CxE+ze48w1wSPG/3hwyqA1/sSTeVmgndG/sAwOtgjzaSfByzLGHXQU7Mh04FeYMPwkvgsLRMUAMsyCPYlQeQGoGAKzXV0cjB2tPx0QHy1V4GwJcW68J9eQuKwteM+JM9tPLlIib86LN7VodxZnFVz86eyaO29ycpnlyWye3JbZDlZnHWfL4Tn7vthv+AFMKLDNf4ex4GXZx5QIW7LM4VzY9k+H1GGLdx3WSOpXx8uhpXiShyd5L0GvhpTCxJosi8Z+zNyFya+epAaDxWUO9xjseR1yc2EeHfY0WP7KoWcXpt/hf5fV2CGYF/87DDbb+ehQ5CKv7Xc4eJlH5lYAk/wLd+DcIiz0x+YBjN+0P7nPJxzZo+PL1cGT9iZnR6QH26TZDhnjsW77PwccL7YDb+B6L5bi6vNERyuAKYAG60X+Hexd4ECkXloa1syoQxbdXE5gVqXaBh0hHpBxGO3dKoqXwB0D0Pfbk9tsBFsAtF+e3JbPlgoLcItsnSIb+YDuhuMNeeD/Xu1ACrB+x3KTGSA+kfXGLFQB4oFRV/8ktG/2Gc43eVTvY1njpWMgfBWWCcPQoW/76Js8Wqh+9fLfl5cPb780+PLw+Hj9ocL7/9tfJshX1181pI8/AQ==);lineShape=1;" vertex="1" parent="1">
                    <mxGeometry x="120.99034146288784" y="32.53180144716936" width="1.1595608655115215" height="20.734618609046098" as="geometry"/>
                </mxCell>
                <mxCell id="9" value="" style="shape=stencil(lVfLctswDPwaXzEkwQd4TtP/yEyc2lM3zjhOH39fqA4dAZY205ssY8kFsFhSG7573T28bDcpvJ5Px+/bX/vH827DXzYp7Z9329P+rE8bvt/w3dPxtP12Or49P15+vzxMkdPTj+PPaYXfF1wMxHlCpfDn/Q1F/vfi6yX+sH+exadA1cYLFQHxlbpbn4kBgBNJsgAhrgAgg/AApAwBuRF3A+BCMa0DSqUcDCAXymUdUAtVS6kwVQBoCmgGUJlCWAd0oWZ3EBmNWQZ0asUAeiBBO3TqtkqdKYIcFJBtp7tWCfRBc4gO0Cg3AKiUbNK6xDvJZQBTt1pSkoKqFEdfZ4AOkpZOoXoAg7JKo5B80nCHQsVVqVJAgEzNaknLgDqtALHynsoAqqSUarTi65Rw0m5E9Q0Dl9H1ohWf1FG3tcYVB1DxRQDIvnFToZFa6zCVGaVP5J1uRjQgSjpAbuIC7HQMYZjEFZGg9U0uYDundWiIkwzfmqlPkAvUm5HTAwIBlMDNjEInS5Ssvmd1WFOTsN+iAN9QdfqsBTqTaqdXX6aGBL4IAFm3qxQGoDUS0OoavNFU3IiiNwGrjaJTDbSRo/fvLJCSHu3B7sDqfejyoMYlBpDamJHlieAxkrPLQwSU0ij6NT5SQhtQ8dobalyMD9TcgEIbC4PstclUgbBvxr9SBA1TqlYRmSok444FHviV0jhrifBsTtR9ODJHvdJZ7td767KYhxA/wpFDqKrYh4NUxQ9vgGfN/96xP4/Xh48L/dP+cLh8D8z/9x8A+ury8cD3fwE=);lineShape=1;" vertex="1" parent="1">
                    <mxGeometry x="117.5775218327667" y="51.26038146310759" width="2.9848804075452438" height="3.12792034419715" as="geometry"/>
                </mxCell>
                <mxCell id="10" value="" style="shape=stencil(rVfZbttADPwavRLc5Z7PafofAeLURl07cJwef1+qysriypqiQN9kmaMlOcNjB3l42z+97gbPb9fL+evux+H5uh/k0+D94bTfXQ5XfRrkcZCHl/Nl9+Vyfj89T79fn0bL8enb+fv4hZ8TrhZyeUR5/vXxhoL8efF5sj8eTkt7plqMvYuU4jageMpiAF5IACALVWcA4qj6bUAKlIIBBKYMADFSTBZQqQKXIlPyBhADVZCl4KjYrKqTOW8DRKiwAeRAHpzgPBUbQ80UKwA4cjZLSv0HlfeZJrY01Np8vE8DpdLbV+BQoLD6fnTb9p7Cyv8AWFahdglKVEBGeZWf0IS4Yc/d92dKNuyz1ZCWUgH58cRWQqWSB/5Ik/BsX4ghX13hl0wC9FAaOwt7lH+nAXPvkAMBqKSj9BEjj5wWTSchFTkI2QWSagFCjIpGi7AjLTaZbLkknUuZGNWxa31hIesIOkWlbGnWskkgZiXJytQxQ11ogKsDMghZMxj7AApK0YoDdRH4wyTSU4ASNEe34DgCf7ipeCGiiHRNsauz2ibcf7EfC98mKCXYqEWnk5VQzI3D+4DYqzp6KAmdp2w5CAmOsxBa658BqnNQaDpPg2VNtBug7hV6maoQE6BZ14pgs6SLiwcn6OLSZSlTBQeM7bnbjCiBdqftP1h7hilSWXYTn8kDf+q8Zt3sEck67lbfZ7QfpL7VzQHdt8+tT93y41CjK72sPRwf2qa6TifkQRWM64n1P+C651VniVTwAd3mm3HAtQ2vuVPA8ffPq/tf7fXhdk94ORyP0zVj+X9/r9BX051EHn8D);lineShape=1;" vertex="1" parent="1">
                    <mxGeometry x="120.64512920170324" y="50.893781582393245" width="3.1429102904348833" height="3.5710680702413033" as="geometry"/>
                </mxCell>
                <mxCell id="11" value="" style="shape=stencil(lVhJchsxDHyNriiC4Hp2kn+4ynKsimO5bGf7fTBRSA1Bqce+aWHPYGk0AO7k5vXh9nm/8+717eX4bf/rcPf2sJNPO+8PTw/7l8ObftrJ553c3B9f9l9fjj+e7k7fn2+Xk8un78efyxN+n3CVvFtA3v05/eCZWP798uV0/vHwNJz//28/n8kFdF7ycF6EakHnSxzOB0cenGdHpY6ARBwBwJMbPYie2AGAGmwAmVICgETJD4AUYIy4UiwDIKvT9TrAB+I0AhJ5YJI4imOaizrNAKAujiaVRBkAQqQ8mlQqVX8dEIXiyIzK0IfEFEYfqqMMEpfUALYmuXwdkDMJW6cZmFSEXJzCCjKtzwsjl/SdEQFKe14HePIgDwqoIyAlSG8FlJGtUTUBmZSpmHrQGkRRSlTGxC0lCuhdIsn4hqCiBLikeZBRBCS2kroMcE2Euoyp8CBqFHIjvbUGUT3kQGXMA2+8gUnGPHCkAnxQUeExrKqFGSROZSsYelNC5x2JKelm4mUJkCZavUCxxrDtJepxBbxQFXOjZLA2H6ST6mC0AETVpZmNIeLSGuRlQJyypkwBWfNCefIhgobrPUVjUoLc1gZupFvDKqAjKsDkeWl5KEps+5U21YgA3hY0M25w0mKy4jYExNZhz9xDPdr3bnY+H0B1LtQ33QrW2jzHqAMBpFkmRdIQBZBmrZ4UbBIyBmTzhgBlWAEyESmCIKkPwXA7tangWpR4qs+EqJrt0KDlhsZV3zV0DUCJDm0IWZkEffB2AFWnKzKJqTob1oy4PQ0+mjjEpQVgwqqDClBuP83ESr6ETPooQBu4mYkdJZAG7T0mSKr9aNZzxMWcR0lIsQ0UvZ9DjdRZ0hRPoASen3tp9bkNny9NQNflj0Ye3/RtRTtUCSVZYi+6jwDq8siipTuCGFXVnzGmuuuhebtGu8ZIgTtDzXYKC1oJaPssdt4OuC/UaleAGGBrY9eJ2QfurgjXXmF2Md32UEOvnTodUOBgVcXq8HmivsYNQ6baJeQa+7xptwHW53nN6YDUJOQywDd96AANA3A6eVuhGugAMqfjcLQtGotMVK/FvgINrGHafBZ+Aa9VJk0JKYORSZImQGpGXmvq1qTQZt53jsR1Y3bzrZt19ukMDapaFyOe6ArvS3QMGZ0uDCuIvV2VlI+o/VRLviytH10mn51vU4IyI3Y61P6F6o3ttBoFrmJuukXL5MHzXdOT1a1bBaSYNG/jVs9Zudi4NXSWERu3krqpmltMB6vAtWFltZwLIpDtCjpFonbu7XSxbIUgX9J2xvUcDPgW7K2Qnkf2RytcG+eT3eQ37Onseqe/023KRjzLtNLifFV7UbDBh4/fgm+d1w/nK/f7w+Pj6cZ+/b+9otefTtf78vkv);lineShape=1;" vertex="1" parent="1">
                    <mxGeometry x="125.13379128943637" y="53.887856303640135" width="2.9652832464083105" height="3.5419596941393263" as="geometry"/>
                </mxCell>
                <mxCell id="12" value="" style="shape=stencil(lVfZctswDPwavWJIgOdzmv5HZuLUmrp2xnF6/H2haiSboLxp3mQaKxyLBahBHt72T6+7gd3b5Xz6vvs1Pl/2g3wZmMfjfnceL/o0yOMgDy+n8+7b+fR+fJ5/vz5NltPTj9PP6Q2/Z5w4qnFCsfsznzC59O/g62x/GI839iGSpMbee5JyHxAjBW4BhUTuA1IgX9qIIlUAyJ6SNAAJGJCJWw8hUHH3AYVJagOIgVIGgGirqlmhspZCufWQhQIoa1XeWh6K8sAgafXQAmpYTrZD0gCCBURQVs3BlHUCgCpVptwBKuChJgq5BURcpWKrpK/gcB/gnSPnWkQm74GL2sWUqVYAyBTadtUoUfdpUVzbG5NPkESpVLwFFER1JNeGdFOHbYRbyvifLnLsmMBJZLaqrqtGtgGOUsccIkIBtq5KNUhaB403IeFuUg0nUyXcrzqZxHjAilDRl16kaDIlSr1IgaqrjpVoAWhu1G5D6AkjQD83tFnQ3NBW63goWKOl3UHKdEaS05CMqAtFwPSUtAmpEkdc1k6j+QMAfwaQ/MaGQM2nADPJtH8zWu2FXAvQLRdASFGotEzr7YDB0gorTeumjtBD0CHQaloinEvClmnG855XuayzssJe8qo4cwHihZlNgKbQCk5ZADXqFpaQA53qunxJ0EK0lwAPLz6ysHM1d6jl7FXPUUSrk0Iy5nCZy8Lk1d6BUadMVbb2gNmJKRuPB+/X1jH7wy1XgW37dR1d7VEvT/UxnbYcbJP1ybv/x/b6cP3QeBkPh/k75fZ/+2GiR/NHjTz+BQ==);lineShape=1;" vertex="1" parent="1">
                    <mxGeometry x="137.66438076611723" y="52.967535352829984" width="0.5898947096030346" height="3.2190160935188965" as="geometry"/>
                </mxCell>
                <mxCell id="13" value="" style="shape=stencil(lVjLctswDPwaXzEkQRLgOU3/IzNxGk9dO+Okr78vVJeqCFmbyU22sCKwWAIgd3z3+vzwst+l8Pp2OX/d/zw8vj3v+NMupcPpeX85vNnTju93fPd0vuy/XM7fT4/X3y8Pk+X09O38Y/rCrysuUKoTKIXf1z9SIpW//3y+2h8Pp4W9vW2DfSyUyrZ9pTraK0neNo9MJY3+UGJgL9TCYG8BIfcTSXH2IWzbc6Sog705GIF99t8XygnYC/H4/ZiIAUE5UHQEJcrAo2wRyBhBogAoMkAYXcpGGojBXPrnwAxQqoikRmUUXclUQNCsnZMOqIEUyIJNdmPQVSihFcwBHvPGlCsAJKoOoKRohUAyArT0vbEVQ64eoCgPkdqYBzUaQAxTmkaWVKgAl0qh5nazUgHbp7KnVRsxcEkCtVHebRb8bYAVAPUAAfJulXjcoc0ED7TUxJckAyQFAONEPKCBoFvzRaAxBRC0AdQBMqwaMcxlbkYUEpBqW8LJ1XhIINUGiKP6jIcMfLLXyblkPKDMCYXmAQ25VHxzmABoBave1QMKAjCJ+qAFtMMpsdXTirZcS76BmoATKK4GEBf0HNWmS24FJkYuManLdILF1RxQ51KkjLacJW69RxGtQjF7QHxHfCsAqsaTvIsPuqIVmp8EJt5A2bi9RxlvOXViqnC6anPxXcg1IG2or98TD8glG3fUAwQVy9pDnAeggEeyjyNkXcEbbFvWhbJ4QADE1vW2tt4KwrZOmlcAOMZpb1ILQETNPfhebblRsIdsBPJqEjxLG4lO4bWXkq3h2/U5nZvGbUD09ViZKmiMKXuBS4aZtvOJa0K19RPRbYD0DjIDuE8gWyy52bXYNAtisEHRDSgl4UExdk4WA3tE03HsVWJxJECNlOfqOx86MmykkzTGFhFNvyjT1bcIOwehmcm05IasGHrp2TopulZtAAUumQNuyIoZHgnseyH5oNEK4o8QxkIGrIo/yU2HSyCMujpLa5fW7aLkRz6zb+D7uZ/BZvsGBwfuNwsLe3SYNgWsvw+qcOo1euk/yvDq7kPhZUPoDX/BP+Iz9EFtkV/Uz1f93zISgR5WerOMoD740bue9+3t4f/F0tPheLzeSy3f+4so++t6icX3fwA=);lineShape=1;" vertex="1" parent="1">
                    <mxGeometry x="153.98956011966447" y="53.23402362989039" width="3.3360874693817717" height="2.73630857060842" as="geometry"/>
                </mxCell>
                <mxCell id="14" value="" style="shape=stencil(lVjbclsxCPwavzISEkJ6TtP/yEycxtM0ySTp7e/LqauTI2RvnTdfQBKwwMIuXb3e3zzvdxxe316evu5/Hm7f7nfp04758Hi/fzm82addut6lq7unl/2Xl6fvj7fH7883i+Ty6dvTj+WEX0e9TBIXJQ6/jz8Eyvz3h89H8YfD40Y8RuLs5ROQL1S8fCrn5e09pTn5qOflUyauTj6A87PZO8mH8/IiFLx/GMgXe38Y5CO1eF5e7e/RP0oK/Kns5SPDB5lCHh1qIRH0okB19JCZ3BowuZLwqCAdJKcVhJq7oWGnJkqjQkoUACpKIC2jQqGGwlwppkEh2xEgDyR32K8KhRi41YDB4hWQW9WQ6hSUGnhStUwZoZobJRCHatgeoSGRMvBSbZRH8JkbAnhSSxTHOIhSBEa31YldwUJZQaRb9flm6EoCClJYE37NOFxiWqOmo4LAmtemhKi4aJjVLhA1U0I3cC/Sq0KlAKxe/h4j1yJWYKrjDRbLAsCkhdTdIFRwnXGRMzcgfFsGOaMbrpWW1HksGxaZf93itAJTKV5BgdGWkexsaBTBDTn64moKyEtp6p+mUMGTuPgbNog/HWqq4SNGa7fwUq9OSFKYPrkn/AYXDPJzhkWGOLK6OlZuQ7YgGE32Mm5vlJw/I6x5BmJ3fui4PZ38lIuXR+cbZYvqFWCJ5N76NgoNKSRqxZuMQhAzqfgYREDb4kTDWoZBW25wNggkYosNLmzaOcE5L/nMtCIL4mZxCFPiFGC0dW/18hVRPdIpkRGQLK2St1hBmMVzJEvMgoqdHy0sBAnK5ykxEUPKPaCbxCzw/XXssoZSgf7kKdEKKER1Oj/AQhFDL/1bBchdPqiQ4tQBY68ep10aenPZKDBSKBTFP6mC1DeKKVO5QxOhMUZ2XMc6IDC6qLfB2I+AG1R9gawFDpF1Zb2rAkMvVWPuI7TtzgqqkZkYRyzZHBdREy/9vA0PRjzBXizjDSVCLOnERGQllefmQodWKTDfpE03FDjA2HwjbrwQWIJzIh2NXkYk8KRsbcTNVIzJSPU3GIOD7CL2XrwqMJ48k+dHVnhQs5XqvcQR5kOZUtTaL1oZLMhxdQnyBZsa3TxfITDmpU2Fs/a8FKqQXcxLJzxNzUsty2bEXqalmXaUXNY4Ffb95AmwdnNOW9tn/HfxBBC99si1TsCBPJCqE0ejb/A9VuD6cZrd1yXJZeIJEq7pMQz9PpnKnaRe5sgIi9sUpgDr+QSC0JcQl0EMr33/K24f3jfMd4eHh+OCevu/30jbT8dtdrr+Aw==);lineShape=1;" vertex="1" parent="1">
                    <mxGeometry x="172.53585304042213" y="52.792735841732465" width="2.8995865753817767" height="3.570912384597574" as="geometry"/>
                </mxCell>
                <mxCell id="15" value="" style="shape=stencil(lVjZThtBEPwav7Z67pnnhPwHEhCsEIiAXH+fmljr0D3rQnkzZsuzfVR19RzSh5f762+3h6gvr89PX25/Hm9e7w/p4yHG4+P97fPxFZ8O6eqQPtw9Pd9+fn76/nhz+vvb9Xxyfvr69GP+wq8TrjYZaaKi/j59M7qk8PebTyfAw/HxLSBLGxYQpEUCiFKyAfQiIxOASrYntCGxXgaULjlYQJCQCKBKagZQEUMngCxqTygAsFcKku0JOUgdlwF5iNqgU5BO0poRgxpAjNJJ4XKSYF8pFCnkldKQZgsXVIISQPKtUaW0y8/HIdVmtUtnzyfp6iNgSY1BtFjAkEHqHPqS1CyFAYp0S58ZA6lCiJItIFVaZ+Rco+2kIkqaG+fbIpREqza2Rj4/j1YkVQjJtwUYztiGnGddAKxsw/N5SgKpQsoygo8hkhiybo15BjRphbPNnVDpCRCAYbMEDelMk5qkpW6V62q1nVTOSrsPWE8IWyl3Aa16TSrIG2ultLHr3Ks4k6R1FMnRA5S0xgBZ1hNIWjHNggN0Sp+BzrHdCmkOJEsAOAmYWaKMBqXtEaicsjSBow6QpDBAl2GFb3YfadfRliAKB1Q/4ECIzEvtR2il7YpmKsMDaCGipOpjiKyZMKSrz5ISnRnq+7ucSXgR4LIUuBgHPx7QffWdoG1a89kNXUzrQjlah+wdIgCB9PdsDV0ArA7Q3uYBTI1ne6sPunFSV1cHcJAEvcfRIIUf0R3lkiixiFNolgmRGaAvgELNCQrhVaBSb78PIO3aw2YV3g5e0hst+rGI0c7MA9aNaCkHq85IjRdwgo9BySbE5LwNuibqNtBrxfmZs7btA6K3J7Vuznffz6AOlqO1U3HFrhAtR+vYKLJvsYrfgLAyRXLCNHFWK1HKyFxfXra4uFXmgg91dqZxqYybO3pThUTosxK60hmq3hdDlFjjYb9zRgN2jLxPlmp/H+tTJhMXLeNWk74pzoU9wM0qnMjIH4LfxpACpvOosANgG0oM0DwPAndKyGlzxNmKuP989TWOm3rs00b9HFH6+2n5fZXIiK9LzSjvc/azudEphY4ctoewnGUCwAxzyyRSzEg5xdGtq0q7tFS/WSEJbCJAr5PzVEqLNpdHJ79KVzGMkLKII1MKqHNzZeDUn+psg+5pMxz7YxDMsoXrg5qFlvwqBj/NLBIAzhdOW0b0egLsK8GWBX5CLB7QWQzRKxIcDaM/AK6XxqDbIQCaPYBpPEaM2z+njWMx6HonxjUDCGcvcMRg7Tr8mj7XPwboy43soCtAXW65pqEmhfj/S+L3Afjw70767vjwcLrSfvt/f4eNr0733+nqDw==);lineShape=1;" vertex="1" parent="1">
                    <mxGeometry x="185.86686651868115" y="52.550456219463" width="3.283292739633494" height="3.149118929316098" as="geometry"/>
                </mxCell>
                <mxCell id="18" value="" style="shape=stencil(nZzZ0ty4DYWf5r9ViTt5PZm8x1SNJ3bFsac8zvb2AfMX1a0D9Scnd15w1BQXAOcA1Fv66Y+Pv/z+4S3uf3z/9vWvH/756dfvH9/Sn95i/PTl44dvn77bn97Sz2/pp9++fvvwl29f//7l1/e///7LtJx/+tvXf8wn/Osdt2/7PkFx//f7P4yxlfLff/nzu/3nT1/O9vFs37c80L6e7duWAtkHGU/dckJ7eX7ZEo4/trN93kIm+yzjiVtH+yLjCTfjb/lsbzOG8zPO9r1vpb+2D1sYZ/u2BXi+jVaeX7YK4w9b7Wd7m0+Y/7CNcLaPW62v7eNancPe3qiRfTq/bxtrhC/saznbdxy/rb48v24V5jPp+FvZdnh+cuNPeL7SVs/7udkMR7If8r77lmD+8xbP9rVvDZ6fl/c47Ns60S/su9iXLcN4ylqdwz7heSy6n2vE8162dj6/leenbuHsD4udR3jfuv73sK/ob6uel2IzDONvy/sd9nHNwAv7LuOx94Xx9y2e92fuuL5dn58L7s/hnp+2Bud3rP897MPWYDzBAsAZkMZa8leAls6Atg3yiIeDOgC2SRhQ5Rfy8gLXgLjt50lKcWvk1KOeyhRWXL4GJA3zNtEZls0A5bxP584iQF5h7gDULcJGDce+PwB5+b5rQNFUYjpjBogvtWjVKJZVTSYsPCf6hbr18+YLY+Vf14Cm02r/gi/dNd7Yb2b6BXPn53eY80ZbwzaCDMliCkVkS2hkSHE5hVcAWYd5QmBr2DLJOoQjDXsF6JKloRO2qJ/P56evtOHaPq0Yf0TZrcGBnlE8iD1tC9v5ktUdO/GVvSxywaQlFhdFMCm1/5asNGPQidX5IwwKNh1B7SmpntMtvmIbNP9d93Tk/TNWDv2wx6RxbP3s4cMa4HWS5lhEwCTEvHmKYo9JpgsgO55Is5fzYgOE/ZZcVspJlMW7rPaBkt6iWan5GEgSLACLCzJ72D9m393zKclv/n3R3nLEqPY0/2Nt9x+zz0cY+kH7oKzjxj6uHP0H7Z1/u7HPK3f4Qfuq/vbGvq3t+GP7x3LcqvYR9k8e6g/35WCuSUdYCeLDvsL4LaePur5IgpL3D0iCsibJgUlZ0ZQ3LIf3yn6ofyb/aRxJ5j+i/y9ufSMmcsbZJN1Ny0G+spfxJMyOy1ic6mFPnMPsx3k/ZCRZxlGLsCCcn+oSJjtwsD/Nfpyffzjga/u4ONjDnviJcXjxJ5bPkL3tT7UnklgtfRGVBPN0s5f5PzbItX1VFtpRdKptHe9H/kmEr/a1vZ4SXHJY1Wi0AzR447YrHbOcm1xWc8KlASjHasG9Q8Sku8UVo5+IBkmXBihNAaQttqTitJFM/IVDi3sCFNgYBlDCl5egcw3IiwQ/0THSsw0gR98AlMsZYJz3XuDD1oobUkX204pG+8Cac6tahLhhua1qPmQ0NtE6VJVtJ/EmWcwchGPqFNIMIELdzJHpPHTNeR/a+zVg6G6dYjet9HB6hh0g8Bp91zBlcYFkIgOImmyAAe/Qg+7WGRloSFEzi8kdYWsYQKmfLSUNKWmuM509LJwB2lAAnbienUw0UNM3gEqOOyqI3aniaUeCaQAvCOIsWUSsCiB336seoMQ5WHcx1FgkKemzkCWAvMTjV4AisinXYgwwHABXuiuPSpXfoeteMipJzKIP99INpRMDiJQwySedaZd7Gvsk2XTsKtkboMI6GED0buOrN7+g8tKOEWiENYkHIKw6zSuABHYDUHIyDmX4CUCeb0RNsHLEnG9Edcb5qD2+AlSZpUOUvwYkTbCMd1MmYACRQXNBnm0ACYoGoDR0ZBXijNpTucsAypQaBsVR3C9wbm8A0YKmGgBHdFQVp/JAtm0AYQMGuPkFSeHKjo5sNI2iBiBCbwCZJQN0WrimCmFhzX50lTxKxBg3nEZbuHNgdG1NKOnuF2QvFY5As1UmngEZvfcENAXsNK1Dz3ThYosBWnQA2t7DFYATljcnoLt3IK/hxLDCLTcT4H6BeobC7rqYZpWcV04iuwGobDwBRQF4IIYyjsI1lAmICiDRZy51dgBeOVGt7n9BsvVy4+8NkNwskWMaGncLF3UnwO2NTP0BwzVccJb46H973q58goTuzgPBs1TlpW+PnJbv7g91cQCe1uE8GZGgCXCejCTB6zNKIuU1AuPi1aCoCeF/Bzjhd74EzVNXGlSYUo+upbkZhMhbtiX9PwGouGUAPdUsxI2DQD+HanJl1QXSgPXpmQHJkHZUW0bVtszCFUYD7KKQD/ZMRYeUx11iKTJZZhHYUlelEG0FvlcAZTUNz5yl3yLDz2yatnfaouvWosYF4xzSLjcZAa1D1MqMcQ7qT5m86eyZjNVQrWIys6QAXLigIWUSrRt2GRWA77BrQjPJIv3CvsolT4DMDFlZzc4Of3fnYV/k7pUsIIllGkhHDSBewwC0W3t3ElNHBfXR+fykhXQSE/uFeEJ1x9408KaKGm1vWnhPBZ1Ar+6luUBgANVzOJs2gHTIp4TCQy/upZloGUBfOmKq27OG3ak+kqiblTfd6ZtZ23ITF8x6UqJ1U5LrSfnrTc1v9rmLuM59pN3Vv2JDmawHrYrEyu+wL0/6pMZTJmCA4PR+LNQM1xaauDrVlTbN1i2qu3RXs4i40s33hnFyYgBptpuVHRpS1fw+DH7p6qq1A5lcKyobh85DcqpXaFytLa742lBMbFlzDQOQJmUArbBVLphlV62td9VayQRmhy8NKWlyYgAsjUZVBULGxo7mGknD0WpzDQhKzEJCz2eA5KvmNK273oAJEVlWdVxx9qNTN8hQVzl7C6idpbt2pR0vnVTfJs0NftUd0YH141qUZHUMiTWrvnTTQJJVoG3cwOOuCVVUo6otaRR7vNXirmmVJTm/so9qT/nqbFiKYk9KVBnr9Y509a6BSqkSN2h1J8FjECnNpW3cYNZ8AxiOp+p6JZ6f4sImkqQp/EWxJ720uLYUFuuLK6oHHk90PSZIVGfDpBx4dKPZ+yyUt3JXp7hjVp7dtasd9+dVwyolj1cNsWh/0XCL9hcNvWh/0TCM9hcNyWR/1fCM9hcN1Wh/0bCN9hcN4VTivmo4pwbI2dCu46H9k7Lq5lyeS04JCtj+ZAROm8SQu6foQjz6/wffe9hTgDf2Jv4wYny3cC7j52J7dG0VN1eUumpGCRPFeRlOmiowx4rN1ZCxThir+qvMF1ic/yn8/KL+gW+FR9dkyD2GZi9ZK+czj/7pR75E3CE6YbOj4DCvhZ/95+Dx+17VHQP2PB+SdQcG7OqBQuSL8LsjlWlN8iXAOKe0RwUuogYn2AUWu2aTpsxSxTqWUUh1W52vcDaVNQO32s3bke4KJ4m/s7tWPEVcE/0KIGRmnn0CuMt683DSO/jkjBt0HxTySbvCd0jabx9Z0bC9qX1t/BkMA8jWsJBFGbgdF2EEFhOJGAfXf54qxqjgVHvLMkgoCo7UzL427FvQLCFzWBt6BTpzv/pQL5/5jnV3z+9IU7oqMoXvLTVXKY8sZri2pYz3nKpGBeNRVEZ0ParGA/EeiXr5uuNRLlrGqZyGOJWu8vo6FlcLzmdWvbe2m49/yIauHVXDrCGn7ZgmJO0MapHvfWr1vbEYlnQ+510GfL6USua9AbrHrKxyNvVTEHfjHyhuR3VZnS/lRPexn4iyTdAA3m8+PKE1wF6wBhg0uHbeb0EDWe8oGwT1b2PHOLarSjIC7s9dK/SDWyt2LSINblzbtdVodqfix7SE9Q3ujt2VRY/jWssLe2H1o988X/Ty2doE+21XlWR2NrF9UntKO/Y128/2+L76MbCBTdy7qoqPVsUX9nIen3qaXgHcBJHD3VUGm/ZwwHa9BzntcYNKgjInFCdIvw43UBe9+vocZa7/x9fqbuztD49P4/326fPn9y/rPf+/fkrP/un9M3zp5/8A);lineShape=1;" vertex="1" parent="1">
                    <mxGeometry x="126.44394240263716" y="36.4310356607366" width="59.95474411526214" height="25.43534542608956" as="geometry"/>
                </mxCell>
                <mxCell id="19" value="" style="shape=stencil(rVhJbttAEHwNr42evefsOP8wYDkSokiGrGy/TzPEMJwmWYaB3CiqaraqXoZDeHg7Pr0eBs9v99v16+Hn6fl+HMKnwfvT5Xi4ne76NITHITy8XG+HL7fr98vz9Pv1aUSOT9+uP8YRfk08qVRlZHn+Pb2JVPLfF58n/Pl0WeArkysd3kWqDhIkdwQfyAVA8CShI4REngEhkuN+C55yBYRE0feEShnNkKn2hJSooD2InSF74gQIlYohCDHQwTET97sWphTBFKX9PRMyRbSmQLG3xig+kFrEekO1ZA8ITDVbggBC8RTMDIG87BP02CVaQi77hOQp9ceq9mJAiI5ytgQBygVHzhBSW+S21HV1SoUcEE4P3exZRwDx4JoNlngwvqrGFp/AEfFqfGkj7OBdtHiGeBMJY7wCU3CLrIUAFbiOyVercAUKc8s+C7wD63Hk3Uc86qhUi49A362gycBwfqWvrh+cT6DgLF7AfgOldQCAbDqvdqHvO+P3uVTjBZUoTSEGL3A9norJi7XNuIP3weIrGF8zSh8vi2S/Q+DVglB50kKxwqOEwhsHFGDA8EqAANdj8Zk8TCjeGFQ7BBiQySSgSBEYQs/TCBZIID6tAjL9T7zKaTbMrTZvO5qbweZaLzBlaRWLfUxKgT2U1snQn+nYTQCCVuJslpRgv1LmjmkmqGogCrSbCL2NRDMZmEHmNLJooQR1RGwJpVLAralZUkkteew1v7XPpTm37nab4GyySxUmr7Hh77OpSilAOHVO7meIqUm5TdBg770UcP1WHbwhMBUQ/6Nzei/prSUB4dQ5JmW7BHtfJRh7J5jxRnwf0hG3yrFdOOYdYKvG1pHNG4AlTU8oRoNH9w+VwKRgbjeYPXwuBo+65NETyeKRJWS9Ho88Jza7MKyAGgX2Gguzl+JNyfTYP9XeeuemZzcqP3INfx+vD//u/C+n83n6ZLD8334j0FfT94Xw+Ac=);lineShape=1;" vertex="1" parent="1">
                    <mxGeometry x="181.46328090443478" y="48.099462841255814" width="5.04654407073472" height="2.8152939845690605" as="geometry"/>
                </mxCell>
                <mxCell id="20" value="" style="shape=stencil(lVvJkt02DPyaubK4gsQ5y3+4Kk48FcdOOc729wEzRc1jQ2qNb+NnQBJJAN1Y+FS+++PDu9/fP+X4x9cvn399//fzT18/PJXvn3J+/vTh/Zfnr/bXU/nhqXz38+cv73/58vnPTz+9/Pv3d1Ny/vXb57/mE/550ZMSUp5aOf778ksOOf7/w48v8h+fPz3INw21gXwVIt9DRvmRiXwNqpt8CZnJ59AHyIsS+Rjavt5Kn19HqBXkRyLyEmSXb2vDzuVtvXGTl3Ug5/J2XgPk6fekUPb97PR7yghx358ROjnf0kLc15tiyJUolFD6rpBCZG9IoRdUULJFWUNJu0IJoxMFWzO8oa1dPleQ0PdDSxIasTozggwK9k72Bvti+CQNjSkcbnj4WQqJHPT87/2T7BGdHJx9gIBCXbZ1rmBL3E/a9i2Sg7NNFFDoQYhx2zEV+CSl3myGoPsulRgGW0PGRZccGrHW5Pyt1JCI8U132U/aXErJojUkeEFfIedUfoSyO2ixPSJL7qHtAbvGFZJP5QUDWLU9I5Yqoe7rtRBYGOKEsQc8C7GJ7E9D7699Hfp5hFyx4ZDXZYYX8nWXb4m6QV2OfshbCGcBEj3fILGT/TS82wN2sx0m+1NCBflB97Og/RgF6MTHTH5/vqT1hCv5/byMkkQqn3f7FztBhmih7PYssnb4Qr7t5ytjWeCFvO770w3PGOKHtq+3Fwo2Df29t0WpLuSBQHWO+IIhsR+B/iKepP37R6LxRxHvh1kgC7kRQ+5oPKgbQdhXPGT9chXUFT5pUNKb6oLSQ0GXlVwC076pGmlQNOjru9foQXsuwXVftBp8EzfOcaH7oWDMlylYYIE1NBpYJivaI5fKOvsrogZ4bwqDUUEXK7RTcDUoBfZuCoUFr75Y1qMCsSUDUwjXU4G5f0ZbMgVmfAaPveEuKXG42jFFM4XGIkZcgPSgEFkSZaYGB9dCI9baGmaByoO2pY3eWhPZJTEaBQdXqPGJsRT4pExx32AGSL+5KCVGgoHMFFhqZEDTQCHS5LpH5PCDcxeDpgEKg56DYROg1RiUwxs4RXgDd9Eu7g0SMlPQBR+HwkHJzgErI+MZPFQa3sQ98o1IKYN9MXAM+0iWNdueQOTrg4Ou4rZOVCcKZjkJYF0WkThXSIjTvVLzNndpQHwKtSXz4LKHSjPHTg7OgkqBWodSKq+O+5hLRZZLybLNQ6HRZMQU8r6txlYrAfYJgfsuGR1modIUkJ8r5W8zuO+mYcGz8De0fQ0WnpmLmoLsLmopzM22CuQwkZZs1FXN6qAY5z+p8jCjR4HmUGjcgQSZQC1rVW/c1ppo2ekVlR8ybYZxUwFKBWMZy1sVhBZUThQqjXwnCoVW86bCbt4l0XKEOnzIPD+ZHrefdL4PAvAG4S7aFpd/qIQpV8BKWKGQNak5rCHTpNjIToU1RFovVAeKSWlaObnLvuiZgjCF6KqqQvHBmAXkcZZGUVAUzLJmoZcpuFzdUkFmfJbaAgLNYjUrnh106qEczsqwhspQLuGZZfdZGWdLERmf0gVID6OiPPFnQzNAUKVWIa7/MlYyfp4IKB4Z70c0zw5piDT5DPRzMa0reciVOs98FN2m08K/yUM5T3g1NWL/TpbJXslDki60CiCuni20WmVpVXTfw56fXbmN2r/JQ7mKJ8Ozvwm0lu/Pifxgz3ffM2hEkYwsYSyHfuN+Dsqk/HkpBQ5vD0rzO29vg+6Pt+ex0oY3+sug1fIzf6T9X+fvffVf3hhPhEKMj1dCkd7HQ6Ew7OOtUN77zfId2y1cfha7cb1sPy2pzPh8tj+9I8EUav+WqcN5cXswSgDPH6ufdcU5MrSvI6cQY5U0HzgHpaMRU0xjNcwlNWHylCqtKBr3G9AgbzyPqCE5Kseq09ocu+Ru7Fn+bDczdtmxjZgTX/RAw7uZRDEFhTfUlWmfK6hLPLgvq2IJ0oyVGZ8pQCn4LhdSjO532ZZXuMnnFBsXdxmjV7jJSb3CTdarWKi9y6t1hYi3Zu6KCeBdbUCRtd9VH9QVRG7qGw5n7yooTuGuRuOs9a4K5Lb1rs7kzPuukqXLgx9rZdxacdoqUTqi6uhmoUEgxYiVWjmagZevAITud/sKoz6itN+pbgSk30CQK5ZN2Gbb1BzqNkqzT2rBQrvC6nl55y6XEHe70sxOfWYaad95qOsKpwVKV1V/iGQjLye8JBuQLJQV284VKk5D2i+sITSO6cpD4abmEpH/DN6+7AOd2hgRZZQdycbcaGKtvWHta5aeiLXOGkpHBZbEGMkFUj85F2O5LktSPiYrwykUngcI5oXmUpF8ksUtLOxU2gWzyIi9c97/bwMDmfJZ1tdBpQcFBkEGOJisdlodmZAG1bJBEcVAE8ZrTYFRgepGECcNZONmGcOM3sxTGT40VGDV5tLx4B5A6VyjYR9Zj5eeK2TE0QnFbIgs4pTdKyU6VZhpmKAC86DsR254pXAOelVUoAMx0U2fCJ0Ms5wHaOJ0CLKtqWMnwlyOVXctb+ugUCm/Tw53Z5xhI7YZYXROPbBFJ+xqzdEntujo2vN8iNdXiDpv5zs8EVqCFfQ3w1BWwmxI1Q3V6QQQpokTU5l3otl1PtCaMaoaQLIAk9wsQqHD7HGd/yHPBzwjDswaXY3EqCPSKsM6NhAdF5c95PlskSfovL4SXUU70RmBiM2+WQMl8Tois7Wsh68X7Kfxknx0N1KOEdSr8wX5TAeQkxsQTnzMH4fHKu88Zpwds1SYpWAZO1610QFVNyBcy82A8IBqQablhYpjYJVXDN3MYhm0xSQ4uFN4idrRg1JpRB+Y9xc+wO5y7JJoiTcdU3EPVS1GJgyTmu/wMwt11z5ebyFc4WpxHX42qvTa2j4UCof64e7FJTqkOe//QHdc+TUo58eJt6bMccCRXy/kXDEoGNJMfFI7uzkIO5nOXN8NQ9nZs/ndfITOV+7LwVLdwC8fQU5IoHiZrZz0BxN7fnWlF5pOFD9fRvunFkuA6vPbRjW5MShKtix2FpSntyHcZHDht2m6m4yhnYjqzjfz20PH3cLDgGh1ulV32ZD3KwWjaaTg2hRnUflI8BxrVpBnqd/kPv3b5KHvEvl8SEG0j3x+oPr1MjJt8hmfT+cHKrLjSLtA4q57JZ48VNyfdPf9UD9ItP429wdggH9/wV5fvj1f5y+8rPRN98fv5e2P18vqPz9//Phy1/3x//Fyu/30cjG+/PAf);lineShape=1;" vertex="1" parent="1">
                    <mxGeometry x="183.36938942258098" y="57.756502696679405" width="9.006175575877345" height="12.714249711058066" as="geometry"/>
                </mxCell>
                <mxCell id="21" value="concept&lt;br&gt;" style="text;html=1;align=center;verticalAlign=middle;resizable=0;points=[];autosize=1;strokeColor=none;fillColor=none;" vertex="1" parent="1">
                    <mxGeometry x="65" y="125" width="70" height="30" as="geometry"/>
                </mxCell>
                <mxCell id="22" value="[ 4 , 0 , 2 , 1 , 3 ]" style="text;html=1;align=center;verticalAlign=middle;resizable=0;points=[];autosize=1;strokeColor=none;fillColor=none;" vertex="1" parent="1">
                    <mxGeometry x="73.37" y="155" width="110" height="30" as="geometry"/>
                </mxCell>
                <mxCell id="23" value="" style="shape=stencil(lVjbchoxDP2afdX4bvk5Tf8jMyGFKYUMobe/r9wdA5bZs+RtWXRsWZej453808f25X0zOfNxPh2/b37vXs/byX+ZnNsdtpvT7ixPk3+e/NPb8bT5djr+PLzOv99fqmV9+nH8VVf4M+MMlVhBzvydX3iy+f+Lr7P5fne4MXdkXGcu9o6X7T0Z7pd3FMD6gVLo7IOjXJbtE3HvfnTk/LJ9IS69vbwB/lhPxXaAlCgBhyxTzh0gWyoJRDRQ7I+cIwULQmrJ+h7ALcr3AdxSegEUchEkIbYj3gAy2CF6CqkDsCETQNpsy9INwIIoJabkNMC5ZYAEMdoBAHZgS3kEgENzJpM1wBtQe478sIMHmS6J4hAlCCj3ACBKAkisAYz6R9pFncGt7VBU4qTH8Q5FuZRbKu93nJFaMx2iGEqgqesWfeaKb127eOq+IWpqUKqLZoHCFEHL1UT0matL4DAF1oCCXfLDDga75FRYMzkcJdvXRgmUAQtUB3raKNKEuJgUgFfDqlzi2Oj2wUOzjDDcciqsbPEEGhJXexTwzFgaAlg5tCq+ym0rTV30oRHfjw3E6bM9ynIsHFdFA0KfKz2qiKbIGMNhUlQm9Y0m9UiWNZe4mOLQcis7fBIwTIg1wDCDrrl8cMqtAYY5ek3lg5O6ApDmG7TATXk9KDfWEKOiWQnsqJlqfQEuG1VZrSZQr1X3qTgxBRCnqiwVIDXpuKhdVQt5qCxFHbOiJiaPem5gJgdFWdLUV7Ux6LjQFNuNWmeQZqe1d4zwumGb5rxcT2yj/7v2Imp7f+obsL4UZV9EkhID1zeqriMsiYGFrYMTelRWjWSXzNVVhhzgeKMLWuQCKAajR7P4DnJ7Ub6Xs8KbrWmF1czxdUFGMCtzxCdGk6JsBwPJQfmO5OYnL/Gr5vJw/V7wttvv588Nt//r7wvyav424Z//AQ==);lineShape=1;" vertex="1" parent="1">
                    <mxGeometry x="183.45676750794115" y="169.07018395726675" width="20.90255639248025" height="1.0095717056693314" as="geometry"/>
                </mxCell>
                <mxCell id="24" value="" style="shape=stencil(lVhJcttADHwNr6gZYNaz4/zDVZYjVRTJJctZfh8wzEgckGyXb7LcAIHG1uIgD2/7p9fdwO7tejl/3/06PF/3g3wZmA+n/e5yuOqnQR4HeXg5X3bfLuf30/P09+vTiBw//Tj/HD38nuwkkNTRit2f6RtHwf374uuEPx5OM3xw5F2HD5QDwCcqocN7Rw48IDL5PiAvVD0wqM3fzaBQACGlRCl3BizEwCBritIbFPJp26AwSekMhKlGYKA59CxJJgFJ10XZgicBtFaNuA8pRHK8beCds7yGSlzhI0ypYyCXYRLB9wallWadpkyhTyIpr6hyhSL3BpkiKEQqJL1B5uZivfsy+dgbZEqAJaU99jlot2TQTDqh3HffSAMoNTO5ntbKsDeYQp9zrVRACp5KMiONZ9q3vpk9oMo23jVCZnjEqSOJFo+mR6M18WjrgiIvJkHxDPp0sSNrpgz9m3WheLSQHBXjP7WSbPAvYvEJ8O/bwp3h/zftVgNli8+Afx3aZPNF/SOL+HUCQPxCcYFHa0LxJh7dGzCeYPjX/Q3jcdniA+QzLfwXyKdb9H8F/v2iXhjv2rTO8BnO49J/AFvXtWs6479C/3bBlQ/8W360H0B9XZvuGV5gPMn4T1TBfvD2ZozzCBfu5/BjQP1GV4HhQQOpPMn9Riyh6YX1KxaaeLidvUoRqbRoe0JVFbpiqtJiPwSpQtGVk536pEGCHIoKoL7tVEoi4Vi9neMxK/AEFThGfqi6RY1aI7HRXLnxtm7AdnTGygBaVTuYpO+Kft3ANU5u0jS287NeB2639Gbg2/ytVzq0Y3GT14k8WKcx2X00XjhwX1W4VvMjRA8UCElJDOZHCMOkVa7n/gmqApGo8zYiaSJsC29OgjQNs4U3kkgnHMXvbeMxMY7f96PgMT++ubvjBRRA8aGPX28Q5idbfETx69ywwTOYZMUbieDgbhFpgmCGR/yI3RQOKwppB+aOR8vxsz/zP8brh/s7hZfD8Ti9kpj/376D0K+m9xfy+Bc=);lineShape=1;" vertex="1" parent="1">
                    <mxGeometry x="201.4874582577733" y="168.1242272382537" width="5.695629925637717" height="5.941601929169581" as="geometry"/>
                </mxCell>
                <mxCell id="25" value="[ 3 , 0 , 2 , 1 , 3 ]" style="text;html=1;align=center;verticalAlign=middle;resizable=0;points=[];autosize=1;strokeColor=none;fillColor=none;" vertex="1" parent="1">
                    <mxGeometry x="204.36" y="154.57" width="110" height="30" as="geometry"/>
                </mxCell>
                <mxCell id="26" value="" style="shape=stencil(lVjLctswDPwaXzEkCL7OafofmYlTe+raGcd9/X2hqlRISN5Mb4rDFQFwsVhqFx7eDk+v+x27t9v18nX/8/h8O+zCpx3z8XzYX483fdqFx114eLlc91+ul+/n5/nv16dp5fT07fJjesOvGZcqeTeh2P2ef2GK/u8Pn+f1p+O5Wx+FYhjWF2IB6x25NKz33HbcBEgiziMgkVQI8COAPYUAAJkKj4BEIcIcwlij4EnADpGpjkUKiTICaA5jlcRTRiFVSmNIWoaU7gNSsGWNWiVwcCnbkGKkjHaorYgLoFLN9wHZtYgbIAk5UKXsKcoIKOQAWbMQj1XSV6QCAJnimEOOFMAOxZMbuZS1oRgAxCZduNFxG1BIxpCKdgjIwTttuTHrmolBB9VCtYyAApOo0YqGAgqISZPIY9a1kiCAckMsoCAyKTfGHLo6bPOVLZumLQDBVfpkBRAQkxTbQlOZwA4iTbj6gwD0k0Bh7OrpqEFdRelsjlrVFSXtyJuQIlYm1Y1oAQxySLG15AIQqrirS7QAxI0SVjtEcqghPPEqhwiqpEXMq7IykDJljg0pNyW5C4gWUMA5aACpWi4lIPia9D+qdfQOoIG0rFItIKMelVUOOiHAOSg11jtU5DZSmzgdIKHBu9bKSu6DBlpJX0AioC1qRGAZMv8BAOQL3GrSTYgMGig4q0t6lKhFOTer0E05JN8sVr51jiLyqes0U04FHYmAejzjKycvgHZYLFvvNgD5eO02HBRjdi3ixQAlGJJfzQf1ZAns4GMTlc71VdCi716785UVzd32us64woaz40SdMeo3pjA2NGNzrxUf3/+Bt1+1s14ekJOJq/Ue9poWlI3fa8Tdzjc0X7RsQAmohQZkJFJVGZG02EZz0KSrVqRs1guSimwVeNGObfFiO5sdHGtqkcTb9YDQMTQD1cWD1hdbf73LgXj0muRtvki3UqI48kF1CfBBRcpMZQ+v23qpimO+DG88m9d5lO+H1399eP928HI8neZPD/3/7bcG/Wn+ThEe/wA=);lineShape=1;" vertex="1" parent="1">
                    <mxGeometry x="95.04828705217352" y="152.08192999431873" width="0.9545972336775502" height="10.510817350769713" as="geometry"/>
                </mxCell>
                <mxCell id="27" value="" style="shape=stencil(lVbLctswDPwaXTEEwRfOafofmYlTa+raGcdpm78PVFWJCFvb6Y2mscICWAIY5O5l//C8G2J4uZxP33e/xsfLfpAvQ4zjcb87jxc7DXI/yN3T6bz7dj69Hh/n388Pk+V0+nH6OX3h94zjSqVOqBje5ptINf65+DrbH8bjyj424tLZswHCNkAqhdQ7MEDeBuRAHDuAFIoMAJVS7yElim0bUBJx7gAZx1ALhdABSoZZ0kq5B7RKggBKUXuAUtJtAIfgOSmTJugi95XWREkAoFHo06SFCuCkmXIfhH0igUJopOQ8KBVAqTVSp77PPNxG5IXBykUuABBJroIQAKhKqj5NGdS6NsrZFyKCqA3wV/+rUldQaqMU+idkahKUpUCtz5LplSsACBUn8LzI6zagUHMCT1SQNgKl6AHIgwo19pRQG7AyVReD3YBGY0JoDtBwG1AftBWOkQcD9K3MoiqYkmvf9ggVZan4zmS9SkE7NgJeraYl1DasfycPQJQs64U9oCG1Comj1Ja8bcm7qA+aQSe7CYiAkg0QF3QxAAg6lUUIHzNIqQJKKSwPcjW0ApCGCKXewzQWQZZiWObyx6TGhbPJr72HyJBS9G2JmSJorcG/aF0uNszd4tBgza4GqD0N+HU3qxI18G7YmwtcACyV0qcSjjXz3YcaYKWKH1FhWTduP2GS5MwRGatiZWfPIFYW0ubs0dTnq/WL4YD935323/Z2+Fygn8bDYd6/1//7hduu5mVd7t8B);lineShape=1;" vertex="1" parent="1">
                    <mxGeometry x="93.69926346025028" y="160.41325687530423" width="2.7320256459916705" height="3.850305653369134" as="geometry"/>
                </mxCell>
                <mxCell id="28" value="" style="shape=stencil(lVbLchpBDPyavapG0jzPjvMfrjIOVAi4MHn9fbTZgiCR7cS3YZmeUUvq1kz68LZ9et1Mkt7Op+Pnzffd83k76YdJZHfYbk67s60mfZz04eV42nw6Hb8enpffr0/zznn15fhtPuHHghtC3GaUpJ/LFx40+u8vHxfAfne4AbROdTiAKCVZB9RG6gGaKI11QMk02AEyUwEhZQugOkCp1EFIYucVBxiYg+WkBkAlRgALIAA65QIAStnXYQxqdR0w7i6wuqEykNYY0Ejr+5W0R8Yop0wiMaUdVDkRJ78/UQbn237Pt1dqDcWj2e83Ror4Fp//nmDBKlUfvwkjZxDPHeHWqDDsiCYR0FALNUq+ZG0Qo5Csh7zQugkD5MiSGmTQM1WgTJGo/d5JAAe7YYS2ZuqgzNYX4YZRiIFuLEs9CM3SCjiwUfSdZEqDUmZKngMnczygtUa5xxsUkM6kKVKoUJtd/X6zWNAYltO7IqDzr+yuVW5whqSLk9y0UQZ999793C8VvQ4EudjB37uoRHfMgt1xUPGU7QhkRzaRqq8B45y2TOJvUBLQ15byIOZEAiib3QbDxj1qD4Ua9ytQgbVY0JlNCJCgebz4BAk1FI/Zrc9PpoLm5YgD1uYH9Ou7rh5w5M/z1/uEVfgfEamvmFn+ABPBKHPooXqxmrWcBmOZ3Q8Ix4qWvQ5sRjCq2nufj/8BsMWf1+rLbr9fHru3/8fXrX1aXsb6+As=);lineShape=1;" vertex="1" parent="1">
                    <mxGeometry x="96.29901513721126" y="161.16576163198704" width="2.7720797745321706" height="2.7564868878157323" as="geometry"/>
                </mxCell>
                <mxCell id="29" value="" style="shape=stencil(nVjZctswDPwav2JI8AD5nKb/kZk4jadpnHHS6+8L1aUiQtYy7pujYCUQx2LBXbh5fbx72e/Yvb6djl/3Pw/3b4+78GnHfHh+3J8Ob/prF2534ebheNp/OR2/P9+f/365myynX9+OP6Y3/DrjaqVaJhS73+cnnjj+ffD5bP90eF7aR4qhsw+UZdu+CE3/W9hnYg/smYrv7Au5sG0vQi71/jsKDgAcpf4DnknKNiCHFpAZkCgBl5KsAIVSAgBPuQcwkwNBiplKnwROJBkAVlnjShlEKQbyvUshUEEApuh6QIGFFD3V/gsR5yGuohQ10KD0FBB7gAY6oij5VjkzIFEAmVYA97WUClX8hX8ez93AsB00JsEAEjmGmXb9GbJQAMUXE+XcAyoFlAch3wNET1UBoLSoz4C5urb6IfacJJEqiJKmyZCMZFjeqdrEiVYrSNxEAj3NiBInyING3QCKpwSqVYPoaw8IsDTUAcN8JcMzKLVyn4eCM60OxD6slUeA0p+hFgxg8mIBFbG3Fl9fGjrAAkpcpZgsQEDitDSkWkBFRLaqJe9ca8KLCGXGwvYTBXTQRNYrnzI4hM6P4iyAAUAnVMk2EQKoTwG8SjWDQ6uu8P0IqkKCAJpqbwGovoOOZVMbmeqA+sQC0AhKmYK/BpCznYoDl5Toilxz6OKopGvCqj1qawknTgGeLQCVhhLTukdR8YkS0wqAylvZ2IygQQMllRZ9WEc9qoN3fQhEA4EprZoaEQ3HCz2KqMxXK40HZKk96q6i4/8BROOSTgiQiIlnek1WZoLedKmPkk65hL6geTCA0J5c3mhaBy8GdQGJltWcdq1ULldSU+YLqZHAXOcmExZapgB7Z3cBUYUI/Hc2oJMaQxmwnDeQe6vRM9KTVh0OBGsmb96PFbE0dvug5BarkgaaXqyEGSwNq4V1sJVkq6kGa09u9P/BvSpbsT0tbsD/bMlaN0MB9ZCtUNCOQ0J4HpCL3TaD+NQW7dnew1ngfVsNFus5JDmtLzM8UhP3W1LH9aNASSmCI2tNmBzorAH2Ia7WF3gJo2unOUFqMmNrYzPjMkBWT/OFSLN30H/VUWYKOBK0382D8d0exVM7vFp7Ri0gdtFxTfNsCZYoxn5wSVVsfJD4mCRXveL9Ze7Yhf/AXod0tv6j+KhoXb0/IvtZIC7yC+K5EGOLAkIfuPbWcmivP96vSB8OT0/nG9bl/+2Vqj46X8eG2z8=);lineShape=1;" vertex="1" parent="1">
                    <mxGeometry x="242.30975134777123" y="139.898554830292" width="0.9489899639583388" height="19.24370690174487" as="geometry"/>
                </mxCell>
                <mxCell id="30" value="" style="shape=stencil(lVdJcttADHwNrygMZsXZcf7hKsuRKorkkuUsvw8YhTQHIjuVG0WhicHSaMwQH972T6+7Qfjtejl/3f04PF/3Q/w0iBxO+93lcLWnIT4O8eHlfNl9uZzfT8+3369Po+X49O38ffzCzxsuFGptRAn/+vuGcvrz4vPN/ng4LexFqcTOvlEK2/axUQj99yO1sg1ImWp/IGFKsg3IQsUBKhUEaFRqB4iZhLcBJVHuAUlIQQyVKWsHyJZVcKRaiHsPWUl1G9ACVe4ApREDD9pIpQMok4AY1A6Qe4BQxIDWd4Za3jI8Ui49oFABvWR/S59W+0REgEiSeoBSaiCtSrUHBGZi0ButUMjeRQNnakIt+yA0AgBT6PtbKyWQ12qMdIXIlIGHWj3lLHGxQg++EIECaNdqzdRPAcu0oKBlqtMMMFIjQtjYcB4KVeRBfQwGQGm19m/iAQ00k2Vdk49BQVrHbo4+S5AQOoW4qEMB03vRzYtSN5Amc+Hm9xgWGgP1jhCVGmCQTYnoJpP5RB544ssCoIhy1ef1Y7itAywn6gGCus+O5BjU4NgwBqmrQ4EatA4AQZdZcSZAjTCGnCfVnCUlTT7XAbMuz6JVptm2Lu2JUp/W1Cah3FoeXH8nhpSzZYR7gO0CFciirT/SC2+ok7KuH8nHHHgS1nUHd6MVkoF9DRrUK540f64xXALuyJ/hVsJ3aw8x4GXwE1hg6qMnZYC9kCn2Y4XheDe18OZIoKyKrM4e8TfItCUvvg9Ge0he9Rm22f+u5f+2t4ePO8DL4Xi8XSGW//s7g7263Tfi428=);lineShape=1;" vertex="1" parent="1">
                    <mxGeometry x="240.49708293854735" y="155.84454434853507" width="2.608400835721503" height="4.278495264564386" as="geometry"/>
                </mxCell>
                <mxCell id="31" value="" style="shape=stencil(lVbZbuMwDPwavxISqfO57f5HgaYbY9OkSNM9/n5puHIiup6ib44yIx4ajjTI3dv+8XU3sHu7nE+/dn/Gp8t+kPuBeTzud+fxol+DPAxy93w6736eT+/Hp/n36+OEnL5eTr+nHf7OvFrJu4nF7t/HSlv4MeMP4/EGX5hi6PBcKMg2IQtJHyA4cn6bkIRS7AjRt5ifEqJQkY6gW6AIHCj0NdRIJQMC2xpqpgy65LWJfQ3aZwci+EgillAiIHjiFaEmcA7ExeIFZKRNrT2+kAf7ewrc4xMFgHfkTf4B6si16AueiSvMx+TviGG9tceXQhHgMwXf4zNJgQf20e6FkKgwlERYESqSRLVHrCllQJhkbWpedLs5OKumVlA0q6zNHAicA41QjEwjMZg0PTdvZjk3ZX1OcE02N8JO6OCS9SOdnIRmmSn1buGdWh4yVYrrCMDxAlVZlYBqJs+2R+gU3GqWY9thA++MPQqsV0XTz05dVrbwboUH+Yi3wo4ZnnHw9lYLCbrjdCX1diTaInSreTuck8Mif4kt4yUlcqCErLLv7UJlCPwxq1v0FWhJQEPFN7dqeAenoATK3uCRt1y96opHGlIJ5GzwDGZGJRmrwReET+Si6U8G/dcRdH29eAam67ffH99/Nx6yiBp67/Qe6BPK8EL77kvwa7x+XJ+dz+PhML9ab/+3z1Rdmp+48vAf);lineShape=1;" vertex="1" parent="1">
                    <mxGeometry x="243.68439272674243" y="156.38019839453904" width="1.8868872980950377" height="3.6255022935455643" as="geometry"/>
                </mxCell>
                <mxCell id="32" value="" style="shape=stencil(lVjLbttADPwaX4l9L/ecpv8RIE5t1I0Dx+nj70vBWMdLShPrpigcSySHw1lt4sP77ultuwnu/Xw6/tz+2T+fd5v4bRPC/nW3Pe3PcrWJj5v48HI8bX+cjh+vz5e/356myOnq1/H39At/LzhHLU6g4P5dbnC/8f0Sfti/3oRHqqzCXV0Or5TdEN6I3XK4d5SrjmcQnyj5Id578ugBTJw1oLVlgCRcFCBQSQDAlNsIiOQ9qGik7DUgZQBg8lEDCsghBQpZAxh0LWXdZSm0A2VNbACh120WkD1F02hQpCwZjkQqvfPz8ZnK+Pux12A+vhKXIV7mAhCvOApNxaMClSsHrgUiB1pWiq5PohrAnLlO+x5fKRYQL/2Mqv4B5FuZguKc6xWeBXDoHL4ZtAKewMWMcoAtblJxM5kNTGYT7RprJGMQgda11rXts0gRkEjiVdMk5wRyFkBRVa1QXATAaQBInz3gkQCamoPW1WNBga9E7ogs8gGoPT1ifKeSe2eWAEosqrAdkFsAeew0J2LcuDBmza33fh7AukzCLkg+7mS+PqEQo0YwpbHVtXXdXwIo0S5CR8QNWQsjIJe+Te8EJFk8qA/mlaKoJOq0SVpkEg6EKeu0PNc1rq/fO5khOhYxuxX3fCaPqmrYHfB2tvMTEzWg3TMjmircnlYFZH9BthqdqYEYj6hSMlkAEZdJaSWLcVonxg5ajPUAsx9kptGOsxuIKznQObvjBIDoareoVAlJpd3Tonxox80YAbfSaTRsiK2VaRl6DeuVpikH9LZm7GZE7rR7E1tA1tZPtkIVGUpjWIVeqNUzjtjB1W49t5AJ2RPr6oWP0NWbc4MAkHmwJxMBxFVnHwFkkIM9XX2xd+35jbEztidEGTkHcrBnUAG0dYdc6TQaOXOIdtCRmTN68/BMbz4BSDw61ItAqIQbPE46/f4TK0ALXOfMNV6eCBRGqjcOc8W+3sh2SZTh+2hHnKDtsesZG2LzPjF333RfvgHvKVNPLy4I5pvNOQkpvOGDMBzJxMpPTl+Gy8Xn162X/eFw+Th2+3/9NUxuXb6kxcf/);lineShape=1;" vertex="1" parent="1">
                    <mxGeometry x="309.9924113920903" y="170.157510063722" width="21.514529240890194" height="0.4920016995844746" as="geometry"/>
                </mxCell>
                <mxCell id="33" value="" style="shape=stencil(lVfLctswDPwaXzEEwRfOafofmYlTe5rGGcfp4+8L1aFsQtZ2cpMlrkkAi8VyI3dvu4fX7SaGt9Px8H37a/942m3kyybG/ctue9yf7Gkj9xu5ezoct9+Oh/eXx/Pv14dp5fT04/Bz+offZxxHSjqhYvjz8YZy/Pfi63n98/7lan0MlOqwvlIKYH2j1Mb/F0qyDpBEtYyASlLWAckiSAMgRuK8DsiBKo8A24EBQIllAEikmNYBpfqgpcAs1UxtrEIKFEAZWiJ2AKEMsqRMMY6AQg0B5s8dYHn7OORNAAc7chgRmRSUWpXKuEVhEgQonnylUAGV00DZsdUqBwrRmHSMoVZqFVRuAWhCAnYoC/a1BgshRs6R35Y3FINkkuoBFVROhNi13KWWtxGBNPstGpYBXZwpglJPsjLyVRsJEqYFN7T2HlkDuI7Q3KNaA5Sx59S0CsfQRt1QoYJ20K69MyBSA0IjTCV4gAC6Wqn9kSKkq5FJ1QMKqIPRtWUfNCqcGBHYpxXJsQHUNUTuQ2wV4I5UqKK02pEcoEIls6CdChhbIaBQGFtuEkMEEFL2AG2YGouOU5DWiXzqAQkI00Tv5oOG9C5e+iyt+XMtWiC9JxFwhcvESDVMXF0M0gm/KmTsAQHU4dOAyZ6M1GgR6lJZiLHNrAgKV4xqYwPZVGQ8FYObuwJbdLInY1rNClQQgxkgb0+0T4w1ixXGGMzPQBPXvDsx44iylFrvr9nE1e5XbgOCVw2ziRmJMXdrcW1EEfmSr4NZXWSmzTqXMa3c4GDXbiLn9ZECMn19+5kYFEHECzuWocKEvvdcMuhxF/5T4KQKfSzNyaQKUsPdkF8uSg2JnS8VE6Oh1u8HfbmlCkyo5Edg6Bbudrd4m4DtXaPY/HJQVfVzwDILMsPcG/WyHmXys1fU/6+3h8t9+Gn//Hy+Tl9/9/dne3W+e8v9Xw==);lineShape=1;" vertex="1" parent="1">
                    <mxGeometry x="328.7213640731428" y="167.31753499253495" width="4.005289021093679" height="7.16663046520532" as="geometry"/>
                </mxCell>
                <mxCell id="34" value="[ 3 , 3 , 2 , 1 , 3 ]" style="text;html=1;align=center;verticalAlign=middle;resizable=0;points=[];autosize=1;strokeColor=none;fillColor=none;" vertex="1" parent="1">
                    <mxGeometry x="328.72" y="154.57" width="110" height="30" as="geometry"/>
                </mxCell>
                <mxCell id="35" value="ie wrong" style="text;html=1;align=center;verticalAlign=middle;resizable=0;points=[];autosize=1;strokeColor=none;fillColor=none;" vertex="1" parent="1">
                    <mxGeometry x="420" y="154.57" width="70" height="30" as="geometry"/>
                </mxCell>
                <mxCell id="36" value="so u need to keep a hold of the previous element as well ki first wale ko 4--&amp;gt;3 kiya lekin 4 ko nahi bhulna&lt;br&gt;" style="text;html=1;align=center;verticalAlign=middle;resizable=0;points=[];autosize=1;strokeColor=none;fillColor=none;" vertex="1" parent="1">
                    <mxGeometry x="-56.629999999999995" y="200" width="580" height="30" as="geometry"/>
                </mxCell>
                <mxCell id="37" value="" style="shape=stencil(lVjLUhtBDPwaX1Uz0jzPhPwHVZjgCsGUIa+/jzbOGEuz21Ruy6L2jKRWS9qd3Lw+3r3sdxxe307Hr/ufh/u3x5182jEfnh/3p8ObPu3kdic3D8fT/svp+P35/vz3y91iuTx9O/5YfuHXGRcrSVxQHH6f3xQq6e+Lz2f7p8PztX2ixMY+ZuoFAJhqNQA9oTIE5GwAUonRCUI9GEBqJAIAlbL1IXcqcRvAgTjZIGUS4ANXSjaqFQOkUCoG0DRuYRuQMpVmARpWEKWcie2VmoahbQNKoSAWoJkGgJqoV+8DCmuLlOwJtVAHUWqJard56JBLeuNqTyhh5H7rhGijpFz6x991gP6edVrZWjOMUrXk40YBZLpUX3EcYR5yo2ivFBs1AFgukD0gInorERygjjfrgEQhekBEV2JKtuJUZloHgOgrTpWKkQ+RghMyhqqhAHGAMPi75QO7eqCKVEao2pJWbQbU40kCCuS2/lz19oxy0KkVZ19AkiUOxXq/Pyp/EYrWvlMArUft+5SAhg5Q1lmHl2aEVFgoW4+VREgjhSfWFYqAphKGOFwVgiBet6HqV7WJovTev68BKM2JCvsrZSBIyus+OQ2JGj1RNawocUttOgXj0Vu2ANGFNQ5N2wI020k6MbIXYteqYLfV2nTqot0ZZa16qmptIlpUHyFsn8X7m4cYrDcd9gEtULu0D3c3LIwX612wTC2HKYCALrOC45BWGjihTRPVIuCAQ13V3A2qWpqgDrp4Wi/6gU4ovjGnAFnaq5+oUhkT0DqgU7ROa+ITuFIMYQwfVxMSGnj0CKdgpcFE9KlN1Q7nlz7Vpo5xSIV1kHVk0lzGD8jkOs9lh9gcbS29NZcVOF2i71UaNwGpzqqI9oSr1KxvAKrS0R+B+rOSrTgncGfQ/ulWBs1lRirZ/J7UGcuwjlwWoLksaNcr1GyqdcdARaqy4iqi4mbVxq55tWKg1pMnoRR4IfZDWC5wSpo6W+pQWadVNQkca6f611UU7fNhrBIXlbxEYJ1E0yAvMP66Wlh7gZvFrPKwL9cx8V5uA9taGzU7zNV7pI1+kgqwKS8zSnD2qOLjNG2GMWVsfRhxXAuj3Nbts9/4A4y9FqOfr6mh+xS/UDDc6ZbR2HGfArbPNp4ZUu2/v319aK8P7x/aHg5PT+fvdNf/9x/m9NX5o57c/gE=);lineShape=1;" vertex="1" parent="1">
                    <mxGeometry x="96.76827726784393" y="179.06216006018033" width="3.0799876890282336" height="3.3975056009766806" as="geometry"/>
                </mxCell>
                <mxCell id="38" value="" style="shape=stencil(lZbZbhsxDEW/Zl4JStRCPqfpfwSIUxt17cBxt78vXWOSiDO+Qd7GMo8kXm6a5O5l+/C8mTK/nE/H75vfu8fzdpIvU867w3Zz2p39a5L7Se6ejqfNt9Px5+Hx+vv54WJ5+fpx/HXZ4c+Vy0pWL1Tmv9eVQlL+L3y92u93h3f20imP9qlRsdtAEZI+AFlIGQBGNgLCpOCE2sh4BJQYAE2iD6VSq7eB7i7qAFSl1G4DiZl4vJNlKvk2YUYtjUCh1gHQqZYRaNRB5Hw/DicoFbkNqMXI+SUr8FoLJRlz402HdWGVNMcjOpCprznRgROdKYdAdEog1q1TH2NtlRLQ1YF4pUwGfHAgJLgxdaQSz7LPgH7gdKE6Xkm9bBMAjEoAGgm4koe6lwgkBHhVL4AGfPB0LT36oKiC/O+gkqcrqiCLPljCJec+jPltMq+sAxpl9RplBUAlCfXQYS75jWPy2dzc1uNQyRYA8kEXyecAase9Ul3UdELZmkgkOo06WVvKWklxTXOoOIGR/jRQc5xBzeb+vD7lvORHWaufCVSSshhaNm+xCvhk19GHkqkhIMfkE+98IFt98vNYQLnDAZF4FvEV4FnoVWBhr7B3L4Zug0FjSjaGAA91ymOaChxVQjwGGD8A6tyrXmcnCapjamOsGCufiaM9atfJH0Qc7NEgT17icf+Mc63E/RWEyuUJ4ifqoAl5IpaovqH9P/kM/tjeP97e3E+7/f76ZH//f3yj+9L1fS/3/wA=);lineShape=1;" vertex="1" parent="1">
                    <mxGeometry x="113.2839351635169" y="179.23112605751862" width="1.2101088989416702" height="2.8740300555928595" as="geometry"/>
                </mxCell>
                <mxCell id="39" value="" style="shape=stencil(lVjbchoxDP0aXjWy5etzmv5HZkIKUwoZQm9/X7nUWywvp83bsuisZekcWfJGHt52T6/bjee3y/n0eft9/3zZbeTDxvv9cbc97y/6tJHHjTy8nM7bT+fT1+Pz9ffrU7NsT19O39oXflxxjnJqIM8//7zIJOX3m49X+8P+eGNfqMhoz5TcfXsXqYYBkMgDex8p8LgAlXzfXhxxHeyZJAL7ZDfAxHzfPngKztgn4E90VONgH3qE1+1rd3fZr6cMApSEyuiQrpACBOQxA6IprtClOoY0VIrApZj69zogxh61dYAnMaRgqiBKIVMaaZoSRQQQkjHNWXkEeC2FeAxrcSQeEqOOLpVAEQEKxZHZJVIWEKXYHVgAiQJIXPKU2AIqEENW7psVMnnApZzJFQsIQD41WnkqAOmzJptpBSSQuKqJyyOgUAJhrZXcuEJlcoCtCjAlo6rIQQ1wvNSUBSFdU/eWMLvWwEGA1uFRQTVDMunfaUy1rsk4ES5YQEFhCl2RN4AKBKEx4cklAXHVsOdRoxoGj1ZgW/oavRBdudN/AQRY7lcAHrNPXRrrvb5JKNPTpkvtjL8b1pGuqqCKXJoSV3AP0KgRLQAVpkY+45ImDpFvorduOqJNzwLC5Xtdo/K+MhD7Mfa/hUbLJxY1G0DB7JuKZYsDSvVUjptGUSLeC2gnxFw2UHui33PTCqgBmpqHm1yuH6TagvG0BCB4SJTLFFfAJqm2a9XMoVSL76K/KTSoP/HZNmUqoQDiqgB7tjMEaCddRlWnhY/rgNjJuQAczFyYJNc6R9QyBXu2a3vtUNs3t66eIuqxfJ9eluY49s7xLmCkhk4sDoQ1TJXJaV3AmzYruNArz3oesm1ddYSIgHw6xHkDEAqoWNY+YSyABMuxeuzFbhrlQc+PMdE6JmYg6dRb7cU+Q3LrPBKtPRorg60xTX9IC/04u7FH/nsbH7VHpHB2SmxjNNgvW9I1loLvaxszKtMLbPYmJXsPJz62QtY3qALzdAuACzD3hnyxL3DGfe+1x7/t9eHvHcvL/nC4XtHc/m/vZPTV9T5HHn8B);lineShape=1;" vertex="1" parent="1">
                    <mxGeometry x="130.79802878977944" y="179.2418614768336" width="3.9202901833889547" height="3.057491968413256" as="geometry"/>
                </mxCell>
                <mxCell id="40" value="" style="shape=stencil(rVjZbhsxDPyafSV0H89p+h8B4tRGXTtwnB5/33G3clZUdpwCfVvLpMRjOKQ0+buX7cPzZnLm5Xw6ft382D2et5P/NDm3O2w3p90ZX5O/n/zd0/G0+XI6vh4e59/PDxfJy9e34/fLDj9nPRsku4uWM7/mFSPG/Fn4PMvvd4eFvIsSg5aP6/K+SKlKvpL9QxLf7+8k5nX56KX4Tj6Kr+vyyUjp968SEpFPen9EzBGFbKWUXqFKtkQhSu0jBBf+5uR9hSo2dQreSiQxLfC5z7HPtxRS73TwYrgPsTcpWnGBnOAlqLTBJJK36rXTKYglwLPmCuSmkXEo8bpWqbFTgJWOYK86qX2qscKKB3E1vdc1SyEnAExOKQCuJK4J1aLQZ3hBo4DqcEQhAA9AZx5s8oQC4KPtFYpUgqYBTDXQPAAaKg1ePPHAaoqpVirZ34jrcVENpQAEvC+3UijwUG19QEuiteDE9vaXSKvzSlgLXBcGIk15kLesNnW+LvIEENbphEEhkQSAckOPoIK2xYo/tYAsQsogBIUy5Iz1NShk5TTog7C2jfoEoO6G01Yp3AirHU4IDSkrebNZyyeC09SoZyEfWO9vAVk4wBrb0DlBp6Gwuolqf0OZa2gISJkh9pjGIlf53CK2Yn9UdRxpm0U76hs/UM32x6Cg6t43Jnu/3Uga+pkh8bQDMb616f+j4GubChYhjcSFOHJXEUe4LuU2FSxOYKDIV2JYZC2TKBWnJ+ZiKb1DQfF7Rp1xk1TDTJUmGk6rDpU8r2SjoRp5WPF36J2OpqF3bRBR8xrmBkYWaUA3wMLYCyeE3mkQWiUmRdwM+rCiwlkXGe8i4GTD4J00Y1jT4vbB21TlDDPc1lBQjFHRMdTodYsB1PgIDiEhhXu6nsUQZA83l9zm2xUCU20/8UuFnrtiO+5j4oF2/MEYR4fGwVVLwTlG0lLjx0yhpBlVD0gwfJj4x3eB2/L4eHuEeNrt9/MbxvJ//WiBpfnBw9//Bg==);lineShape=1;" vertex="1" parent="1">
                    <mxGeometry x="147.42569630171687" y="179.22917601033126" width="2.6854840579857124" height="3.9349506106210406" as="geometry"/>
                </mxCell>
                <mxCell id="41" value="" style="shape=stencil(lVhJchsxDHyNrijuIM5O8g9XWY5VcSyX7Gy/D1gTykNwpmPftEwPtm4A5CHevDzcPh8Pwb28Xs7fjr9Od68Ph/jpEMLp6eF4Ob3qp0P8fIg39+fL8evl/OPpbvn+fNuebJ++n3+2N/xecCmQ44YK7s/yixSKyy9fFsDj6WkNcJTrAKiJYt4HRCE/ApjJRwBgyjIAilBCgEwljwBP7esuIFIoAyAHqh4AnLWQInHdBwQmiQMgJhJgIWTyo0uhkEMWgq2Dr8QgaC9UDSB0J7cBTNGPLjlyoNI+E6cRkEmQS5HKWOkYqCCXPKUxBmXXv1LuAdwYQ6pUQFo1BmMhp/6K3cKNMeRCFbE1dDJfAUwBWFDFSbYWBNQhaaWDBQQQtDrAxkKmIPuAkqgmm6WU9gHsiE3QsUtqEyBqwaRVJYoAhXKwFjwgn6hEqwUgtor0962y5AH5ZKsODCrtnQrMjYhKCSDUhG19DrYNqVRHC9orM8qrduOx1EU1iqIuVnIlUnSw1LFYQEKAQMzWJQHsE9/ftwpaUJbcBNAJALhRtdSjS1l6KXcBZgQxlJy6FI0gdOyBQa1BW0DCdQhTF9DCobSm/vdaoyitOg4mUQuKQck3tw0Ug87AKWhGABWQiaGQBy5taZR7N3xvG5Cuqd1GM0atdPU4auOSCgJWrkyi1maJ27FMokY72YcB7PtCtQKgUpdsFaRTCcWgrdTsZG2MobE4Da1S4C6QvKVrYTghdBdwxQIEdIEQp+bKcBH1yTYmzRtaHrgvLysqoW092KSqfjLIkbax8fm2rQCqTmrTEwuaV77vIdcNMcOZG+3aEKR7uE0Ku721DID3cx/H16274K3bdRJfC9B5vv18sQE7OHjUXc/meSSCRoixALpxo+Oejs7x/bpSV0Bp1YBhqNYkIdHk3tFXpwZUslg7I68c8nDWtr/NUFDagiS106ABCDyBpuvsfqeOE9tOwbl3p22AzoRxEtYIh0gLccxS6+EgSw0wMrWtfkg6E7V1vqMDpbYG9haAXFKAUdvbvruXpWCuP/Bdg9bBBi3wuJeKBaw2iD1uzCZQi0nJbqsKyJiuebLgEF2vZ69VXgO6JQpTDIyvlT58D/V/gH54u/a6Pz0+Lrdm6//tNZn+tFyxxc9/AQ==);lineShape=1;" vertex="1" parent="1">
                    <mxGeometry x="161.09252934812758" y="179.68259353468028" width="3.7194122815993693" height="3.588290284568996" as="geometry"/>
                </mxCell>
                <mxCell id="42" value="" style="shape=stencil(7Z3JshzHDUW/htuKyjmxluX/UIQok2GaVFCUh7830o9Vr/ui+rTe0hHaURRudY7AxZDgu/LDbx9++vX9u7z/9u3rl7+//9fHn799eFf+8i7nj58/vP/68Zv/6V358V354ZcvX9//7euX3z///PLfv/60JNef/vHln+sL/37B7dueFijv/3n5i9y3NP73N399kf/08fOdfG738nWbmeTruJcvW58k3/d7+bwZfn8Mlf8+owfyVu/l07b3x/JpS+Veft8SfD9t5X78yY4VeyAv65PmVozk+/3409gajmfejz/1rcN6+urJ+Ns2YL/ycVpO+boZypeu8gnmm7cm8mWrsJ55GyLvf4PztSBP56ccoz3lfccryVdZfz+xKD+qyn8/gZfyvnr5Tt62BtOtW7vfrnnch0vxtqVdxAtcFj8q98phbAP2tm9tF/EMSz/0ajkevj51pxpO1fSity3DOV7bcr/wdet0z12RVJHfYTh+DNO8kz9P0rV82fL9ePI2Sa/VLYti2wqN35dDLgp/vwdFuFXSU+P4+Vf5neZ7qslD3u8Vfd+2mkW+wvij4XLLB3bRh9uKyCfSU/kwg6/yO32/bFPHQ+vjx3fX9SG95pcprOd3S3At71db54vypuef5cuumuqJfFYi80S+xPOA8vVQZX9Qvl+sP8mPQ938QfmL84/ytpW3fL/6cX/L96tf1zd9P71tPWs+ruuNPOjPWuJ5QztalEj6AtD361Z3ka80/nZc11f5BvbF5YN+IJ5du+5v4vkOXR/Xz2BNXd6EyGyTxj+VC2S0p9UC8Uc/oe0Hz3m1jzuMvyUlG2VrxHzyQatv7DXsbys6nnoYkGv5evz8qzwysab2paE9bX2rU+Qnrc9QouofoPG4/rmf70B71Fz/d5HvLC/nbeJ97PtBv17lJ9jfnlTfngThkfxsIm+wvz0HPrMfJ/ARYO4KMGLPV64IHYle9Mg5gHSKA6bolHywwGtAPQj8rfdFq1T11iweS5Ouug0OIB7anbfKslY82A5o8guuuukkuV8RXWbah64xlEWWaZVOR+fG6Sdl5ADLCqDb1sdxuW7CEHjdhqojB0ya9AjH+8mFm8eq3wAosuAA8Tjyjr6wA2QO+XTSHgEkuOCAQctqGk1ZXhYDZB9WgILugyktWhEE/gXhFbkicXGAnKUVFYBfGKfjcwOgEJ4DisTw+tZh0uOkTidgYFDIAUI2lzWBSY9T9Z4Awxs3kmo+B1DczAFib5fHQ5NOunElHSb+EUA2zn0kCiGMGHLgWNsInNy9pAbKeIToXGm800W9CverJlzREdw6d6zoAjlAh2TouI+qQ6ocGXBAFSaZMIrmgCFUMqNhH01VZeVgkQPkxi13hiYdvBH3T4jeOsDkF5hPjn4s4gkY6JA4QAIE7nJ0uqL9IAon4MkVHUpZGzMyB9R77d2YLzlAdnq5ETSkqVEO9yOMNi4YxeUY0CrNIz1wAgYSLAcIUXfqTpHEEWycc/dJp9U0B7DINd0HO1ydE3De8utQ8a7BUyd1pAQcIFS6d1TGDhDe6oSI8gAzaXzZ2QfttAMkIDQ4ouiALh7Z+ZuPAGJQXJ+TFZ0hOeTalljlzKoqXRfSBXKAzoHD9g6Qo+FqgfI3syibWbecJl3CHCbSUAd0WSU7ZvUIIDlMP12U45rBLZsJEzMOEMO+1o1WqR4ezwlgt2yeausEVIwnzaberv8NOfj+v4VgzY5umQPkLM1xuIKPABKSnxNdGh+AUIfJyeEZkijGUU8HiF6ynVepa9jTXC3QKrnnea8ELGPCeobAtj1RAkPZvVUMLTlgBsCkKxpSg9aQa8ypYQrrB1d+BJhVATgkU1VpA0miA6opgBxwB4gDbhPVve2qBBxApQa2a62BA0iRWXCabKKddoAEQhYANs5CVsg4TLEO8wy/ADvtAEnYr0nTkMoRAbgBkBJwgC7rQIOyrks4GnSBHCCxbjtV2yOABPcdkHlIUmaxfpNWqWl6wjj+vm6wHO+MBsUBknDw0zVoH5qSdT/weFqbupZ+B/G0No3ZO4CUgAOiQSEbtzau6xwouLkAJQD4aEgc3jjxZlXZvXHm3Kpm5m1nRVbDnd6x5msBki4rcW8HSER3aVsekjIyw/IRq4H+GDoclwCKrF8O6cmy6qTnccsfLmtWwJNVEpfGAUR0LSTp5xPd2jRc5GSCykKWYgwA1Es9LCsX4FmIa8yOBMsBFn6BfCALsftX2vgIoJPuGAhxi7YPXaVOvzC1umhRaVJkM7B7YzUzVd0/U8ZTz5JxxZADJGZsXFpqpstqnPN2gEUbR4fPNArnAMqhpH3XjIXTD2K61whykNegugIocGchnGMFs4oWqW7B5LcDRgBgsaAFIlowx2GRrhf0qBcghVXiOZSwrJRwXoCqALQQpiltO8PzD+fwNk5mwbRnzGatfQgAVDQh/bUApGjOGPEtgEyKBW80M680DYWsS8pDUkVTuCb98o5SHvJCcXC5jIUs4bqjfCHUq+GI0dqIADCeQw9DenapAwDdoDcD5pFluTER6I5ODUwbl3VZSBAsq/XEtgfahxs39AWCA9C7HKqY3LajXRx6Wp+xh67+6woJMUAynSskxM6iMqAnoY2mmmyeBVAPHd7gLFIq6E/P7FilPz2z/wvPrIUh4fFux0G4vaIcABpBa1Doe3lmRX+BUkHWNb37LDzT1btcypiHJMd7RePpivbD8N+SjSeKTJRAxXcBFjL/S4880XwCaEcW4xFAfD978lKnhRREZw5XA4cb7CHHgOh4doHUTk/MKCwqIr/ABUaLfw0FFJpDCcF1Y+8yKxN4pbKPAErvuSbWD7MQ1xtm+jDg38NP0JjCMyszZol7iOoaU7I93FFDdjKj186Vj8vwhzkQv1/mICYtOAGmkYeJr35XNCbcoMYA3Yd+LMM1INSHLt3GeUUlGw2Z7gzlPMZP9mYPSbzCSbweMpcZ1caK7GUFYN1JeFVkXEu2ctSBwzVKprYLek9qY7ZgFSfXCjSt//GdoTs9w9OZObBOd1Y9S/O09Y8AombWIGkfqibxZn32C7Jxs3DtTNHDt6ppuCpE48YJX8Q4QIoLJj8RdIDsw5hcs5G1uGAVvHE5j9jd0fnwZS0uWJWKtA/5qJ84AZXrHZJaxVFY8yVVAiPzjUt6llZtMK1S0uj6qqB+UnwmL6eNT2ssb5tcd7Irl+4dQ7QjxIs6a+9huqydH1APUyeoZy6wnmFICT2OVSopxZiGZ+miGHOiIhunYjwB/SgWewQQtt4a7rQDxJFrHIZbRbEy6cw13125RksYe1yFvQLYeZVCiq1OrtNtSr7X60ba6aY7XTuvUtM7XRuqyhFsXK0YSrwoEi/o7o7gsteMRPei0D2h9l6l9FKGvqOrOEJzjGJYcXfxHIAr7taDg/uNW++saVmzVsaXzocv68aV0z29BiSN25XCJdxJCVbJ6B+vMl5TAKrKXUu4S0Kusd7TyGPanWu+Yxsgw3zC2PU5QJ5sUHY1ig6gfXATKMw4c1Cgm8ZPM6fNe0jhZe6l04Mft7o40MPAqamjXPkl4dRqtfVcjJ7tTWVk6501/4IwspyRzcR3fk86i/ShIazXpkuPAJIIytyDxwESll7NA2jS8TG9YUrb2ZE+Y+UkynoCKgAukOghupkGOq+9aZY9DVQC66Hs/bKmzi+cQwl34jLD9di3K4C093pOHB77kgVygNy4VNFp6iWsUkH604vWnTiAUhw9uGUp81nKShITe4o9K5tJCb2sHpt8sX1w4iz2Ie08h6SvLBIXuvfQ/sG43YKFNCcePZcXrTTx5DmRFw46kKi3EZw+bl8R2vOw7XHaL5nmjmq7hRcfDTesFf0+Pwp2J0FIDF9M9xEkdVIxXNJ2HQ+/+KohdV+QwKy3hUIvkLTVaKRQTbi8pLsyJqTrRXstbA8TPJiE56fWoFTQxrp8aN9FIesa+tztyGlrUbdzR+dlvZhtIk/5yat2RKQSr9odofxFOyWSv2rXhPIX7aBQ/qLdFMpftLNC+Yt2WSh/0Y4L5S/afaH8RTsxkr9qV4byF+3QUP6i3RrKh06MO1YD5tC6hdvjrb6Z+n2iyEt96P2iN7x5V2a2o/5Moa8F1z0tNqztrCgk6ty2qj6kjNlrh5ZX/Uylj05UpbiSg8ApFLYU9F6dRAZ5/H4IlFcuGUwaPa1YiJlCALihPTXN+XfMA09lS5wWGHp4+C1dV9s+uZWV1i9zKVjotcDVPjWUj2LpctW6Yt8Jav1QL4g2xUpjCyjuE1f0EW3KuJiBR7o81QWV0DupIDEvoYsQvyPLwTGvrJjDfBtGJHPYL05zZ73nid/yZW0bsNx+7CdtIa5AcbakKb3E1Q/hxebqk4jjkZqSnJ70w873880ZI2BJ83/rRMHt3dXfd3m6L6dZvgnhURJp1/OQuZFEDKRyF+RdQ+xPeivtIfTV0ZHaVTO7PBHzGNflhj576KvUkWjE5lMdn/nsyquWPH5fo5Udz/+utWprv/j7YTykT67kyby8vd//M3n/w+s/LvDLx0+fXv5tgtv/r/8Ygf/Vyz9kUH78Lw==);lineShape=1;" vertex="1" parent="1">
                    <mxGeometry x="100.67364567895265" y="157.91578373775477" width="62.47674651691642" height="31.10646227868562" as="geometry"/>
                </mxCell>
                <mxCell id="43" value="" style="shape=stencil(lVvbkhU3DPyafXXZlq/PJPkPqljCVghQQG5/n3a2POe4PdMnvC2Le2dsSS2p5XmyN98+vP3y/BT9t+9fP//2/NfLu+8fnuynpxhfPn14/vryHT892c9P9ub956/Pv379/Mend6///vJ2rBw//f75z/EX/n7FZe+8DVT0/7z+Jjqr//3il9f1H18+3a1PxdVM60sT67PzfllvLnix3pzPtD6r9/Gu92V9ciFer7fO75NcFe9v1fm4rM8uq/XbfotLWayPrq9/v7rUxXo/j3uub66W6/X47xCW9cG7mAQgu7IeaAiuK4C5uL5RMNdNALzLq8uF4qKwcaiurmca2jy1c0BybT3UGFwTpxoiWxlu0cM1oLtMUYB3FFuAUdctw45JrIeTpXW9zTg9D4MtyrIM4zgtdKyv8n0OUjjWd2myOIPkiDL8BRWWzlMUJ0kTxh4BXvLCXsml9TxTk+eJ01vPBzyp3qfw+eTogqCJI8iP9UmeT+PzzHiicOju6hr1uc0oPQ8A79r6gIINi6hHxMQ1YgpiSAFgstUExSZ1nwNgg7ICsmuC6kATnvZQXVZPaJMUDkB3JrwIzEV7qEG63YiD1Q4VvxF+BEelY63mmgLgTOiVwFwi4cD1yFUrQkeFcmMyrdUFldL8dP0DAOdTgODSaunaZ/ydAxLTRQuSjsCGlHIa+Ejxy5b2m013PAe0adcDkOQTULj41Q4tu6goLLhKeyguqJxgLq3O17ArsQfUapGe0OZBnwPq5IgD0KVrpM7H2r0s10C7PTBAuTd4t6/H2sMM2nNAnsR+AFDRqidsm+42/fccgFS5undPMh5KmCx0B1D1DpiUWKNnWXWCScMGUEUemNTTK6GuVQkRrGEMqOKVqueUDkBXKTRyJdxhGWEHECORAABRBBCIMcftCeqV2sw393sQAdT8zGj3pyT20LZ24YEdwEKNjhWWVoDCpS0AJlwDIZ/IDkhZwtIjIOmU4mxSzgHGlQCeqSoBhEsgbm0zBq8AfeNWlVBwJnWje1UJwEy8hyCLEwCoOIF3qRDtp4ldA+pWa6hKAIC+bhpB65WlK7s3eCSqTVdXqKpMkr3HprcyVNWt41ipku6Sl4bhCFBnUXflGlSRIcUkwd79yPsHwCZTXXkrEVkOrijDGZMxEnFTr4SEQv1VlT09IphYAw2ZjOnAroGOT3UoAFCeHi2lAvhtD96ZsDRIJVLT3aRU0o6y9gAUWcKh/iJeQiWrMhBKwk5PiJKXwEJlPVZU46pRHGXtGkCj1xSu0Y427wDoxD5y3Ore6FlUiKL4LyRJmvRWEGMiNSZOEesqsZMohs5O1ho2a/lDgepSpkNfSHYIWqdD50mWBkBVxiiwAqlodSbic0DZdLoisyioN3kGqHgA9VL5gx6+CvcunlvLW9N/VUr7wgDVA4F66/YEladz3CydZQ+EDoXKn/CgjzNmvvBAuzIWowZAuAaIcT/WpkT0ODniDqCKEwD8Boiq2z005AOgE/sAZAaoEi5FbsuCTeK5ArDhbKqEVwAqEgEI6pSMeQkAr4YlNlno/gnK0omVk2BSRwSgba9U1KbzNj9ID0WEDaCqmZQ3IjtmKJd72JwvqSckVuEGL6k9JB6KAdBVANn2hKL1+rhZWjfgAFAvGo4W5DIeKgNUHzcijgBJdooDYAxQhe5gjc1bu45p27w1a0CtDJCsYbOcuo84PZ/8MUD2XFUO6VyQQN6JLEpdI6ftWKOkGSRFqsiCbsDz1paFw7uu8jSP+KJU1kvggRcARelLtj1BT8hK5pHL8CVVL1Vu/EYGUnvom2uk2QpeFYlhq2bUdKAaTzhGRaYUrMTdbtASMCpj0oxDlSRQ65bYm0y7Q9qnTffZnV71D2WtyEaxrnqgwA141BHXtmMd80XdZVGRGLXeij5unxdHQZWtsM4Xu6wERi9KrWWQJIBul0aKZlK7Rz9N8wfLcg9D56NetMqRSN/Y27pM7N24ukdOeqSckCZgj8ScQLpG1qpDntdJ7pQTqWsUFvtTlwllSMrrseYg66Vet+Fx1Epi400jxaj2GIBCClbVKtzWxyFjqADqnUvpEuQcCADyVrSzUm/tTGRDq1TjZu/50kXVw6y+9fjVdAR1Dgjws4ygTYsH3Urv66yqtSgbapiamAxkWNUeKqegoYJpAL9Sl/M1BASlUTCPEvp63iZ4UfbHYyK48szQbPWIg5/wQBncsuKYTakxTd3GNFXOCJGCSFUbplSvZMyVI2qVHBq40h3uqOqfxvOEW9ReVSfEM7eovap/WNi4Re05Yms5xiMUwHPiHZvQk9GwAVTbNIS73RCqEE1zyPI/TV3i7AzvnUnVxp4LIADUGDJvKQUBoSTavCnfD+aW2VjZAEBNs5A1eTKqxXjkZSpE+3HD4hxQWRXoUWrrqC3yxmRSOzkuxx4AL0XgcYmEJqNdAzxn6nZkgFOAtW3QWWUnZ4WlchS/EpC5XB/ltbr9s50ScpbatMXtCSarPvNc6o77ReoObGdiGuyprm0VVmeQ2VV9f7unfACqFFvGxWmqToocu8RNkqraDuP6HD0hSWVjXPMlQNQ3+ipfqgI9q8x+k62Pqk/3WUNfpUK06svLYd4mOgBZukbwfEeqmNROtksn4/6Qyljc4qP2Vs5dOK3nKtdnzm/gcqlJcxmddSMatwm+l0XANklIehQXpqh/rC+zdDpd77koSWn+5mI9t5RRippbmwFO1utpXARKVrcDAr+P6dQct7vsSapWiWPSHuiZzHS32/YX/s/D3CI/6UCAUcBEfWEpGCuBg8nUiRa+8Xf7hOEc0PmMhvauProIfBM5RDmQHuxOSqCXnWEs/B1Ik00VjBSJtuSAz8KmSugvBIxF6ySHb6gS6Oao6Ru/jU0QZdeJIKTLH0F6XdrCRif8Mdpb13s5rQdJpUjrZVT2SQq39XLq1vlDK70+by2Cl8oz1pM/eGnfvN0d8DorBb7B6iVLY33Yzl//fZ636RHJJhEEqYCN92f/UbrLOB/2T1X+YT1pHFFm4WFfUtnl1b4f/dDw8Xr8cPuq8f3Lx4+vH0Xe/z9/BYlfvX5BaT//Cw==);lineShape=1;" vertex="1" parent="1">
                    <mxGeometry x="155.17098592414675" y="162.4066695289302" width="12.284866882765767" height="13.64772906414189" as="geometry"/>
                </mxCell>
                <mxCell id="44" value="" style="shape=stencil(lVjZbhsxDPwavxKSqPM5Tf8jQJzGaBoHjnv9fSkspCzp3Snytl5rVjyGQ0oHvnt/fng7HoJ7v17O34+/T4/X5wN/OYRwen0+Xk5XeTrw/YHvns6X47fL+efr4/L77aGv7E8/zr/6F/4suFAockcF93d506gtL74u619Or+v13q73mUrcB/hCLipAiFQbAERiDeBIOQMAU0oKEDN5BEhUggKkRrECpx0lDSge+iBRNYDqyYEdOFPMGiBGln1ALFQNIMMdsqfgNCDAsOZCxWun2wj0JqDwTZQSReBDqdQMQALt9wESE6+pIYkLgHwSk1Q0NSo5BwBMVZsU3QjDtg+JsiYfzzfbYY2UDL0DVVBxYoDXeWAH2cpCDWPSzP02II3vrQAeJI6ZQrImMTLJj7+nCEjuQeLke84AMjVgUmjWB5GZApwWQDa6FIhBPYhJRmZEFjwQAcmrSZyvFAMAxCFbE1AgvbtqaKe7GKPE1UG11Q4OOC3ka8X6gGQmTlGZgDbUdhvAo33MsIq2goqLkVyzmfaogJiy9kG4FEFYxYekoyRsTYBLXSO0SZ2/iBqVspYZqRCHMx2KBQTEVqaWrUkoD/K9ZuiNm2JXIZO4MgK9W3G6A4WE224bUZ8AhpkWk7zJtKOKdclkWujdgHpLWI3TUkAJ5+FzgHxbcdKIUUMpYxRZ+4BaVrSAPt8Ak2RQcCasYbTJTUALVDT5+lQJdmg3k0Ccc+b2COfc6OOrzp5BjTZhs1bjlOEWrdiS660bxLXdpLrMOGzHtVDT8l0d5LcMkUHTVQYcBomQkSxrp5swHk2JaTBhAhKMkgSxmfNDJUbyXW2UJDOwZ93Ixir5ezJQy41N6FDDoy9PQIQ9qPdlnbnmYFv0gYLeocYxy26nmrxW41KIgQpEW0BZKg6dUMZkPtcHOPK5EY9ZPXGIws56W55yPAH2O3s6kRYZ0CmRoum4Hg5jaQyDq7EEcagnzNQmNbS+2pE4wIYu27PpPDCeEiAzMeCJ+2P7j/UOKIWUgOm1uMY64djag0osW+lymJ/F3gJ4eGDoBWPOMFBKZb25A4h4Fpk9dRbAqLjd75sChqcLWR+0vxWOa5++t/nvenn4uCR6Or28LHdM6//tpZK8Wi6k+P4f);lineShape=1;" vertex="1" parent="1">
                    <mxGeometry x="224.43955708496668" y="177.71315355000758" width="3.007417783061388" height="3.0345146430254317" as="geometry"/>
                </mxCell>
                <mxCell id="45" value="" style="shape=stencil(lVZJcttADHwNr6gZYNazY//DVZYjlhXJJctZfh8wzJQ1INm2bhSFJpZuLIPcve0fX3cDu7fL+fSy+zU+XfaDfBuYx+N+dx4v+jTI/SB3z6fz7vv59H58mn+/Pk6W09OP08/pC79nXKiU3IRi9+f/G6r534uH2f4wHq/tM3Ht7NmRr9uA6Nv3GkCE2ANAoWIi8pTSNiBFiqkDqM8g24DMFHsPyVGJAKBF8j2gUgYheefI9S5qaFGuImolkR6QYF2nvw0gUyoA4ChzDyhU3TagCKWeag0yA0COlGMHuKrDOnW5lfHaBUhCiYpiAQ5QFwOVRZkK1isnSwRSU1T9F0t1YejBEvFJR2hde/lV33pkvUrqwSTt2ifWAZV8tAAHxkDWMdDru1SqAYgpkluEJAAwpSg2aQZlVZpKP2gqU0AdpF0dLHEOeahUDCBSAuJTqQWjpQyZ1ogtcaUJfr2sOgVM0pUCaKBcKAQLqGAwZaVp4aEiLbGd39NsA0zHRHExmAQ1EC86LkHxaYuykXckAUnfDBC2TGffWmoVwMnuXa2bB2XVNWuGq5YhAnn7aBdE4KbfjaVFsfcguB+4sfTFU2CxE/GpsdhXQhmYs21Ohr2ZiHtzD829szMYnww+kbP2DGqj7ou1R5uTdXPWG+z16DJ6w/FIaVvya/kGsWMC1zMku/kxXUHj6Xseq+Hmu/ZTe334OKKfx8NhvsGv/7dHt76aD3a5/ws=);lineShape=1;" vertex="1" parent="1">
                    <mxGeometry x="244.67216644950042" y="178.07332021523985" width="0.6427874496725723" height="3.1822332028250937" as="geometry"/>
                </mxCell>
                <mxCell id="46" value="" style="shape=stencil(lVjZbttADPwavRJ7H89p+h8B4tRGXTtwnB5/3xEEqVquPK7ffHBELo/hrAb/9LF/ed8NznxcL+fvu1+H1+t+8F8G5w6n/e5yuOLT4J8H//R2vuy+Xc6fp9fp+/vLaDl++nH+OT7h94RzYtIIcubP9EMUO/3wdTI/Hk4r8yzVNeZWYrltbpe/Z3sjxhD7ItUr+0TCQfiptfdSMrGPkmpjX8RbYl/Ets+3dxxUKe2BbZXkbgO8FZsbgEsSiAcAamiP7CWQHHknrg0pGIl3PChAEUOqPJ5BNVEUUx/JUrI0JOQkt32X/Zy3bUCQGFtAkRwIwEpuK10STStCsrYFoLlIL3lk3WgPhQFS16yZNl8I4tQZCvUQnU5rqRJIllCmYDSAhZTqnPUZUA0tXM7iqgZ40nzIuk8aEMkZapZcNMAxQJHQhRQiAVSxbVqrFcMBqQNUcmgAFA9XzAPxYM1CvAsiSCDEBBelnaCK/uYxhZbJKqaWlBp51YfIksh2AMCpUnNiwvNi0ACWJkRcgg6psJCSuKgBNKQ4T+QqS4bwDABqhaJwhZ2hB3hKrhshOfE8S/rQVrx/KK2GcuVG4TCjvJd0a4A2+FArpQEA48qN9raSmId+gBxdQVsz6qWSPbpBA5GnqScabDlWuZ7K8sy3/0uW0IwM0NNxoRviYcDGhuB7dGMHgWcIV45bzmuAYwDMS+chkEpjU6cOwFgAWsCqCapU6kJtBKcBhQmgqnlm1cC3RJmN2gXLK7RzUXlNs/rdBsR5XlYzx4bUQid2so9dgOwyYIuw5JIJVxol+zIXA6MSbSuXcElj0jWIaUNCtzAWcIs6XwQ+5DepAzz4tnAQs47fy0I7cjgV1Sd1XiBLMwXK36iDb9OKuybtJTP/vQIwtRE0CcBlZvcsfeOwiSoBp2nsrr0JXTwspZr1YG8JARjJVVfAkfyY7vl+7sMb9qrpkP9MKK9bhqggGzTcK9TypOlE+GqO6fo3WiMtl7NbyW+LG+lZH3wLc9ccH/698Hk7HI/T+6L1//oFEX6aXi75578=);lineShape=1;" vertex="1" parent="1">
                    <mxGeometry x="260.4809843187717" y="178.73713987695137" width="5.731995841869368" height="3.217657817504005" as="geometry"/>
                </mxCell>
                <mxCell id="47" value="" style="shape=stencil(lVhbctswDDyNfzEEXyC/0/QemYlTe+rGGcd93b5QXSoiKG3SP1kGhNcuAHIX7l4PDy/7nXev18v56/7n8fF62IVPO++Pz4f95XjVp12434W7p/Nl/+Vy/v78ePv98jBJTk/fzj+mL/y66XGmVCct737f3jgK7u+Lzzf50/F5Ie+FJFn5vC0fHRUx8gzkU6Biv++AP7lQdp08U0zb8oXJ9/IJ+lM0P70/hULYlq+u/T374ykJUGCqvQEWChEqpN6C9+RRCJW4L4HPVEAMJVHiTiE4qsAlTaoBRchUQdVKaCBrCnH+xLpCoeR7hUS1gCxlkj6G5KFLtVLsLSSFOigcuxmZTSMHcqhyhVxfOUVvQgqBaq8gSg9UCGlJmRUKrpzCtY9aS1NAXkXpFXsFJQQDgrKtXPUtDesdQBnag6nGlob1FsO2DlUgpwM3gs0KBQY99RRjoVIFFpip9EEv0LIeBLmeo8VTrCCtFKqVZ8S4hpulPCibRsDJKvwr5LqCYr+H3hvJ1xXigKRIAfQATkOOEmytaqEacGdIH42hmqwqZVGWvAWGKlTYNMgbC5UysCCtaS3kCzCQKIqVF0Ce0EbHQp4BFZTNQ8CI/tpfjD8Cvz/0VK0xIr+zXVtBlLH/A0oRhsLgvycBqE52HZl4BvwZRoLKO9RZNGC2Cmhd4LmPLCJGnUhZ47JVgJiOdoPRmvE7RDYWcivjloVgqiaUcdAjkSEsuE3uBQ8isvC/CtJoOI8Qxh6pw2YM+oat9SGlG0+0FtCaF7RXGJfmbWB9RsVhWShw+deVy06d1Fry+lRzQ7tTuoEs6QLlxoUHuCSRuHdJ3whoYGXYXzIeIpPHRsFBSqvHpgcndRLMfnGWP1Ea3tezFO1aOK3bgNI52fUiRFgHGdqSAt4DtGrWS2/BYz5MCn0n1jZS0OTUPbIPWjkLwaeNz2yqcB+Zjqq9PK7CeBQWyM/xqK1ND8iPR3mVB/7wUAJpw3FrOzIJ1RKjucA2Xu1QeLSZFpnJAf+rPRwluInU4QQJ+/UgHtpFwMec8Tj3Q6wMT6djLhXdCAtDrVzrSh/EwkzoLayZPQdfG71/zaQPb3dUT8fT6XbFtfzf3mnpq9t9WLj/Aw==);lineShape=1;" vertex="1" parent="1">
                    <mxGeometry x="278.08353054016226" y="178.53596474461202" width="2.604869562192203" height="5.0272388773413885" as="geometry"/>
                </mxCell>
                <mxCell id="48" value="" style="shape=stencil(lVjZbtswEPwavy54LsnnNP2PAHEao2kcOEmPv++whlRzaU2QN9nUaK/Z3ZF28eb18e5lvwvu9e10/L7/dbh/e9zFL7sQDs+P+9PhDVe7eLuLNw/H0/7b6fj+fH/+/XLX7+xXP44/+xN+n3G5SYodFdyf8z9NxbV//3w9A54Oz5eAKiEPgKoSKgHguA2AkqQWAkjiR5dUxXsC8FLDAMhZqtsGJAStAyAlacRCKuLTAIhBGgkazzNBhyCFAZzU0YJHlkgdYhE3ApqUsH1/qFKMgSAaCSBKGrPqi+S8DfBTkkISJTHDAVdsVhOpW5Ns7m+UejCQR4+SSiZJhcPNjYAqkRAjZsnVAphL/dhY4FlVvzhwEQNzqeSlfy/IHQgzGmIw3eBp+2BC1GYBjVmo4kcqJRQ6EUBbGn4FRImErACUqaMTGTLeOXGmEFkKQcBENT6Vhb9bgGAAKD6LGscmCORBCQAOTIDCLCDEaAFs8LVkhwAASuja4pUYHCNTkFhslhxzCeQcFxAagtLVSzGALIlMAbj0yQ4KEzXiwvitLFWTJaSBxZCnDvLLI7Z6NOUJwDqoTNQIPOh6JWha6TbNyvRRAzVDjfzRFGgmSyrK54zNUqHaBEHr1NNsTSOtyQTd6ApC4fwEaHwafw5QQI0xBggoJh00LFlfAUkiIV9v+bFwEIGscFijZu9CZjpiAeKkeQsoxAKkQDUu8b2b7NrNge64a+vEk+e75XTVMtDdRDhEKePzQ+HtuSipVb1xYeLVzmGwiPgPh8JICpSE6VVnS+zotIjVks7R5YlZEs3QpqsQfatjAbyn+z9PahUeMXmLlxBnMuRp24CRRqL3NUJypG4iKYpAugCdrGOSNC169DoACn5cVCXSRaUrK9fXw0zrptXWDbvOMUEMwDjv+gRk42tSnxjKTFYhBjPku4BlQUOAVAtgI1jz0isrAFuB18Gswi5HCfk0Wo1+oXi3uGH2eTdBGkLXt4QLQGI+OTu0u4ZgFjAkmwUwxZCb5XcvNWmIz3/++BiAi/9fWx4OT0/njzWX5/brDP46f9mJt38B);lineShape=1;" vertex="1" parent="1">
                    <mxGeometry x="293.250223317633" y="178.89812930530303" width="3.297969081253445" height="3.3557829998882496" as="geometry"/>
                </mxCell>
                <mxCell id="49" value="" style="shape=stencil(7VvLchw3DPyavbIIvnl2nP9wleVIFUVyycrr7wNmw9GwMdtTrsrBB93kNXpJgng0QOwlfvh2/+nr3SX4b68vz7/e/fnw+fX+En+6hPDwdH/38vCqf13ix0v88OX55e6Xl+ffnz5f//3105Acf/32/Mf4hr+uOPHeeT9gwf/930cutX8/+PkKeHx44oDixr9uAXp3XdYFgouZAmpfAcW1SgE5LoCgKxQKkLACmktsS83ldUsxO88A1bUVkGSq4RbAlxXQXGWAMjcwAVm3RC6uJ9fXFYqfij4GRNfWFUrhhw6urCtUP/V2DBAX6wpIrpAVmtrSqtbaXEgEoBe3Gl/TNSMBqKmtZ2jJCVtBtQ4rFFfIPbTg+mp8eirxBKBKXB1O9ZaIP1Q1vnWFcZXEllTrHVbIUw3HAHEVVqiukCBQ2nT5DdBcJ2coCY1PnbYQWyp6rxDH3iLVISLrlisu0Yht5IQ+OgIJUVP28552pxayQtIoAIDiOnGIFF1NeHOZbCn5af4bINGwEdUhYIVAV4gRL6J7Gr6Dan0FtC0+HwMKho1WnZAzhDgdbANkJ2RLonFmPfTwWgYwF6de28jFiQa6dUsaySoDqNbbCiguEYcQ7/p60+rmgWUUzHHq5Z1cQ8OwVDqN9tXlVUVly3nHHo2mrTEhshhjeImn+8/oCRoQAnNOzG5ZLZ3oU/1qjZGpU/1Hl9ZEkhLdf8AIqb7NIuTGiTYOo4mKZDaZFr/JB5pFBC1aLaoyJomJU2+QUSQ/I+FOPpH78ujDeuOdy1eUT1Q/QMD0xjs9r1SUZ/4iaJ8qH+j3A9UZFshilqtwX/Fk/0ASxveT/Bqc7ygvJMIFFwrKJ2IPwSWzn0riScB4pfdLs4bLYD99Wuwt+dUeotAUoPJrfNCaohL7DEgm1N8ZHQ/Tenfx5ESfq71pBcIqwYBZOG+f3JJf7VMLlkzPK1DgdEqsw+QxO/nG5Vf9a76I1B+hji0nKd5VyHdC84tg/i2bR9+KD0ae6Uemte/kWYVp4uH4fpKP/Iz2O3lmb5qtBOU90b+f1rjTfyH25o1+vBP6/dHaG//+gvKM3Ju+idp/pfpE+S3C3JAHf1H/5fkuQnzIJ/rJ0KFQe6b7AX4SK62kt2/b8Y1K8oupQUcTh/KfsNpP4M2GYPiG0K5SRH+XRvORqXClUL5XnAjKe3K/FfOj5Nk9ucHnazH7oZ3AufzuwJkcQMRkeE8Z3FujcNfYC4zSZIxBqoXCYmjBJKBqYElVAdIRUMgtKyAA7es0TQ4A8HQ/b/7mlgyAEvVsmL1aNrvpjZjsAJTaZ+QeCmB9DAWIJU8sGaeZ23cAyqZN+RZ5ulEA8jPP64GEBG0UQOwekmHsvCk2zpAQwEpQMTFG/YH1fMc9CAISM++MVasCqHnnWaTuAJTmZBOHK+V1wx+MlujFGY8LPJMPQEMAa3ENwBqLI++Mj7hkHIg1D1RLTRDA2IsCsnVRFr3z7LTvAdwfuvG4E3/4TsAWtvYlPk9ZBzU1OXQ3wZs3P6tJWJ5yYOsMnrdvsYZS1sH2H6f+dj0TVrNHk936rJpvcCTItzHSp4kwGdqOEzb6/aD/xBNPwPClnJZaEGbC1OnbpODrkHJyVhOZmnH0GCnnfK9h32vYvfyPVsNCDy03WqN5rNG05j2pGaEnH2ja8+aZnfesPLLGk56YqWFPem7eZOGzGh/jp5z02N975u898yU//mA982Tvl9hPPCi/WX0S8X4HB6XfX8C/Mu35JCwdYp/PrjfkwR7GgzybOTA9t0oLh43ObvFQ6IhCwZGGzPlPxUJmxH/6hgvxtgTKP83c1JjrIPGho35KpfM9SujBAcYjNAMIWmjlrzQSsQ1bEy8Ok3l3L7xIN0VDbfwhxc+cOAHN85eaiGptgTat1I7g3lqigGia1a3QQD3qBFihzU0eAyqmvu5n8Dh2TY+xvQs1DXVdnIKK9MFPfReq+p5mfD32Zo8zHGNah7m/iUedq3XMNK1q7bzgGHy+IoBlkJKwTawA1p4sDWtKPQPTkjokmIZqiSXlMTQIM02RDvnVijR8TCKyMOZxYFStlfbSA64wpgKJA6l/oT8oc2ErFHwuaTw1NDMVWDsdgmodGz4jkLH5T48TPpU7kGq9mREiRne6eZMZ+YRc3Bhug4Ki03vo2VTgiU5n2jlcDQuMknQzYTre0VhOrDjeHBN9Z+kNm4fjUYOdoZkmbuCTvm1W0RMgfJZIAVDoCH/JUQBY68mUuZHnY+xDPoE8mzkc8qt/ngxPN6yMPH2c7B3tztO4rfKQezxtPHTDrPhwrMon3M+JPFjE6X5q/r7zNpQ/0SewsJP76si0uT38H7+bQID+8fYzjS8Pj4/XX3ns/x9/1qEfXX8SEj/+Aw==);lineShape=1;" vertex="1" parent="1">
                    <mxGeometry x="222.93094573527242" y="183.3318174409294" width="20.675077212321604" height="8.16597287314294" as="geometry"/>
                </mxCell>
                <mxCell id="50" value="" style="shape=stencil(7VpJbh03FDyNtg+ch7Xj3MOA5ViIYxmyMt0+xQhsfxa7S/EygHdSf1aTfEO9qe/im68f3325vwvu6/PT46/3fz68f/54F3+6C+Hh88f7p4dn/HUX397FNx8en+5/eXr8/fP7l/+/vBsrx1+/Pf4x3vDXC65Gi22ggvv75Umw4P598PPL+k8Pn2/Wl2YuLuujpSzWJ4t+WZ8s9ev1uVlez1MsNLE+WS/L+mqpivXevFvWN6vlen0q1uqy3jvzCnDI7wB4q0KiEQcmAHQiRBqDpVVEPpsTMh0i6SugWFWAOK94AJpFIVXfWct40pIAFHMrIHgb/14CvPVVDzhkideAboU2KHKDZp38oFqV60lr2DELEdUpj8Nv/LT0q/Xr+aO+b7W+6jjm+YaL84f1vhGeLTTW2A+SsyCstM/THuvDlNi5gp2l1eZSsiwuDIvI643hq0mZULBGOzTpaPBD4paMOwvfhx/6Vag5SLKAG5Ar5zj1eA6AWYQVkOeTK88kV86wa6Hn4Cyvhpe7NFQ4bssrY/v5iit2IYYsIDwhJYSMSjtkC+oOEOtqfKWaUzs086t1I841delufT1SdZrlEQTWI1XtD3B3BiTz4tLD3+lImgG+OfwBqNMcz0Obm1I/AH1mA1exMFOwdVYEScLl+2reDeFUAep0+QMQ5Q7wYLdquuWp+3NAsLr6QyuWBWvAISMdqcpoC3fxK6AjxVA5VeXY1iElFRu2pKdHmVXVNmPlAUhWBABqiivNdIhBmDeuWGiHIjWN91EABaAJn8bPFBF7ldaKnynFwBMvFNfBEY4BSe3QLSUGVA0gn8aeTujBO9i3Y0QStDG26AxQtAFAXompdxnk8L6+AVSODoDfACoXG3qqDOjK+srmcl3GXVgflT03kj5HbMnD2EIllNVyYkATZwKXeqKBNv383Ksrp1iQQ1EA+Bwp4ii3rgBMA9GcoDIA+NKoA8SlASBjal1mG7VwgQtBNy0lypgQIeSltzjadKQGoKxeDfpUDgFNkx5wK2XfzW+RukzdX/E35wJF1pQIs37PNpR5p9knuAHIkJI51QVApVjQq+vbkdSl23aHIgNvO5LCG0BWRVO34BmgeAYAvkOV/RUcKWcGNGVLlQuzb8H+HFA2xemIMhIqzwBVycGW6r6DtlZijXEHBfCzNr+RUldHcpwLAKBoBoC6KU6VHDiSo8aVJuO2VxBFtuogJRZr1gElce4wPE5deqP713waV9xcVOXGg6u3S8s2RZsHuGU+JaV+QgKqdTUAtEOVqe73AyqzN1QpezkQK4WsJGv2EdFohyJbIUPTFLJeaRchYVrZG2KQ7J24zkJRI/WQ2eNGkqbpPm4VhEzXQTOUJVbpoj9KjgPxo+T4H5Qcw8PydmtFNFtXuusOEEI7jXMg6SyOhEDOtlEnV50D0ubVVTamy8FDtzQgjlQyN2mhmiSkVLx1klKaPaHzltHOTFHSQAZZkvV5WaNkz4G3635lapwmgr/VCChlvvSIEEJKKXJuPBprarLm2JZGkFGDsjo98qY5qBqccY9yXqYncRuUNT0djI6JaeTGqpXdTrI+FRbDIcSbFEvx9xjIUnoSZTIdto5ofaXh7zjbgA+qJu0YWqzWWo488BywdTZKlvm934rLEmcoPgcknqGWIJstfjON4qRPe88NzkELgjW846iYNZF1TitBI3pkSclJDjK7L3OSfqx3MoYigVsNLzVZuiau+sZwXnknj2hTkv2AwPJMQXLkxqmDocT6zQ1im5XBxXpyTPCTCueOM4wxMhZUseVt0csiwHEjYFiUsmhOYIKuezwPf2Ah6luRyIMWPFHyyZzjQePq/ZXlPzSo7rspDERW1IA5cbfHNznI8UcqfgDKzASuuJqmuWNGrXyg8ncBXn/gE8N2JC+tLpZtkCNHrcmzGzdpRUhEaLKk50Spc28o6/lenJXE4fbz45fz9Z1ztSDTnBK5iPSydCnbtzduJlbnVr1NQI8HV+s7v19VIUgG6vZ+tT7wNPOV88SZh/7H+ybuRDjZEML6zOdR9oz1jd/f9XmI5rxs4+3v95q1tvN7SRG7fILM27/3i8HX1+OPb58nfnj49Onl68bb3/lzRjx6+RQyvv0H);lineShape=1;" vertex="1" parent="1">
                    <mxGeometry x="221.5903630262339" y="161.55859011030657" width="4.720245763686523" height="13.918140335616954" as="geometry"/>
                </mxCell>
                <mxCell id="51" value="" style="shape=stencil(lVpbchs3EDwNf1EDYPD6dpx7uMpypIoiuWQ5iW/vQRgsicZuk/6TSDQxmEfPAzjFD98eP319OAX59v72+ufDP0+f3x9P8bdTCE8vjw9vT+/21yl+PMUPX17fHv54e/3+8vn8/9dPfWX/66/Xv/sv/HvGRe+adlSQH+dPmjqN/33y+xnw/PRyDVCX0gxIrjJAcQF2yE71GKAmUp4BxflCACZSQUD0BGBfpwVAdkji+ncACAQQnV928ERLKbnSUEv/f7IPqM5nBLBDZ3HZo+FyJYDoAqhVXWM7ZCcLQIhac3UZAJFqqXgXZQYEDoiLe3snRK3FlAh2ECeJAKqrs1prdY3sUE2AOAPKEHIfEJ3ADtk1IYDswqylqq4SbzWJwTVqcJmcwXRS5nioQkPUzKSzHUpxSs7QHaHOgOQasbQBCuyglGbMN8G9S3CFnUExRM0dhZ0hOT+LlNvY8wigM2vkG1pKLs1aymmY8hAAIkWX+Q46e2v2Tokv9UPPIqXmhNsBDJcsPxBe6oab3dvYtnJf0tlwyQzHzmDeP3OrVhcyAXhX5kOrKZqJJK7Oh9bASaC5CjuIUyKSAYA1Ij+DkQAYLhqPMCKzFAgApRnIeCnNdojBJRLT1ZLibOkowzL7AHV5DqBQaUwbt6ZZSyFzOwQX53gI5vDs0JurbYA4fmI/obTlDOZdPANBJRCEVjOW4/LsfL6Okusoi9b5DD4Pd9wHyJB4A2y0cFQJQELxSrVktYbOruEjL3+sEgCRAiVj47kwe6v3o2w8qsggoXgLUSKS1XwC1QzfwGP88Ig20vKQsG7V0Q2yyfiBo0K9Aq+6SOQxAgIT6Kj/9tdnLKKVZpJoqWyOzTh6lf31Hg0W6XlDxgLAOJukEfvaC64nScGXhVvo7/uNPa/WE/0YdSkuJzG5eBuXXoasl+WsuxCM30Dj3Yrw2TU33ztaDuxAI1GQQYUqUrAFFprG/GhRLssDEcZjaSCjYTiwahZcTn49oo/JKFIPljfUDFOkjtrwspw1sYp1lkUkCdid5YVoZhEm0PBejhrGWOE+RYZht/vMZNFEfn1xgjC48z4X463M4sBhNB73hUegPLwTfEyRO6HNOvSFOGTUS/fRkowRwn2kt0l3H6UK7Qh/cflK8EIVbzVTW9Yzryk78jCnbNiq3dBOWHmV1co9wNG2nshv9YygtQKjyob9hIwWZj/EA5aAQsci1v9UdGUmfyzYmN4gNDve/PuBs3Ec9dhVgcP4NaP+laYetaZ0LqAS9Wfr0wMWmCxXpaXgKrRvz+aOGdazCicvHF5pwWVNR4R5JZ1J5YrkYx0BE6j4URlc9RwsTZSlf/U8r5RlYmSkcWO+CRMj6/0CUVLdOGoDFN7l+zEqubMdtabdQ2IXmmGq4hk6E7OmPWFnE7ah09EsRCCjZkqNdenNzPdY7NQ2SqOrWQgdYi15NXqq1rY07fHGXM3jbDAmWu71Yf1sOGPAGwCwQ2x0uN7izlyNDuJ0HPFqcsfKj7Zc1GihhV+/x4GBqGURZrgyksDVfJOVZ60u881Meb61ZUa73WIcAfIyBWazQQPUmYmNa2mPJEvVmBNNhn2L+dS50HFCP8TsfblxQ7TlhsAPuj0yBJja+JldExoAgtr42XPfgPq05FveB/5thB65f4NaS6M5qykOB43Qlcco3PrVQO8V++XRcp8V2KFlkMQGSDxBFLxBtk8qS0Hb1ekGaJy+zf1nLXV+5teEHmoNT6d3ZtcMN5eBask8B5rGxr3VnFnhyllp/dzHwHD7muidnEVwg4lodsqGtAkvU/vFPDFcXlqSVulUIDW85TBAZW8FllsO4xEWccbu+Hxh67P2AYJtmwHYdEAL+tIV3R6NglFNjcaotSYw2+10y3qrir1Vp1s2uNqemVwZgiUI6948PHgo9CLFqnkYGPUnFRwA/WfL9DmC1XiQFjvdEmcKFWuBy5XvISAgIHAA0HdTyvf90AugsK6+YZfVnxjxHYpHABvaRFle2ygf9QmWAh3AxqB+sbRSNjYAtByX9wZHgF98iHUbYH9c3n19eXp+Pj8bu/4e34nZR+c3ZvHjTw==);lineShape=1;" vertex="1" parent="1">
                    <mxGeometry x="223.95128250700452" y="162.53102397433085" width="8.771606816508784" height="13.810881239187102" as="geometry"/>
                </mxCell>
                <mxCell id="52" value="that can be done by pichla + naya*n ka concept or naya +pichla *n ka concept&lt;br&gt;so lets say u use &lt;br&gt;no=pichla + naya* n so pichla chahiye to no%n and naya chahiye to no/n;&lt;br&gt;so in first position u store 4 + 3*5=19 so 19%5=4(pichla) and 19/5=3(naya)&lt;br&gt;so that way u get 2 things from one thing(19) only" style="text;html=1;align=center;verticalAlign=middle;resizable=0;points=[];autosize=1;strokeColor=none;fillColor=none;" vertex="1" parent="1">
                    <mxGeometry x="-46.01" y="220" width="440" height="90" as="geometry"/>
                </mxCell>
            </root>
        </mxGraphModel>
    </diagram>
</mxfile>